<svg width="91" height="115" viewBox="0 0 91 115" fill="none" xmlns="http://www.w3.org/2000/svg">
<path d="M0.844485 113H4.67248C6.44848 113 7.58849 112.136 7.58849 110.492C7.58849 109.208 6.82049 108.548 5.92048 108.392V108.368C6.62848 108.128 7.25249 107.636 7.25249 106.58C7.25249 105.212 6.22048 104.42 4.45648 104.42H0.844485V113ZM2.16448 107.984V105.56H4.51648C5.41648 105.56 5.87248 106.016 5.87248 106.772C5.87248 107.54 5.50048 107.984 4.42048 107.984H2.16448ZM2.16448 111.86V109.028H4.75648C5.65649 109.028 6.20849 109.544 6.20849 110.444C6.20849 111.248 5.84849 111.86 4.57649 111.86H2.16448ZM13.8011 110.936L14.5091 113H15.9491L12.7331 104.42H11.3051L8.11311 113H9.50511L10.2131 110.936H13.8011ZM10.5971 109.82L12.0011 105.644H12.0251L13.4171 109.82H10.5971ZM22.5131 107.336H23.8931C23.6891 105.62 22.3691 104.252 20.2091 104.252C17.7731 104.252 16.2011 106.124 16.2011 108.716C16.2011 111.296 17.7611 113.168 20.1971 113.168C22.3691 113.168 23.7011 111.788 23.8931 109.88H22.5131C22.4291 110.924 21.8411 112.028 20.1851 112.028C18.2891 112.028 17.5691 110.42 17.5691 108.704C17.5691 107 18.2891 105.392 20.1851 105.392C21.8291 105.392 22.3571 106.496 22.5131 107.336ZM25.3184 113H26.6384V110.324L28.0064 108.872L30.9104 113H32.4584L28.8224 107.996L32.1824 104.42H30.7064L26.6384 108.764V104.42H25.3184V113ZM38.7302 113H40.0622V105.56H42.8342V104.42H35.9582V105.56H38.7302V113ZM47.4002 113.168C49.9682 113.168 51.6122 111.284 51.6122 108.704C51.6122 106.124 49.9682 104.252 47.4002 104.252C44.8442 104.252 43.2002 106.124 43.2002 108.704C43.2002 111.284 44.8442 113.168 47.4002 113.168ZM47.4002 112.028C45.3842 112.028 44.5682 110.468 44.5682 108.704C44.5682 106.94 45.3842 105.392 47.4002 105.392C49.4282 105.392 50.2442 106.94 50.2442 108.704C50.2442 110.468 49.4282 112.028 47.4002 112.028ZM56.0145 104.42V113H57.3345V109.148H61.5465V113H62.8785V104.42H61.5465V108.008H57.3345V104.42H56.0145ZM68.4991 113.168C71.0671 113.168 72.7111 111.284 72.7111 108.704C72.7111 106.124 71.0671 104.252 68.4991 104.252C65.9431 104.252 64.2991 106.124 64.2991 108.704C64.2991 111.284 65.9431 113.168 68.4991 113.168ZM68.4991 112.028C66.4831 112.028 65.6671 110.468 65.6671 108.704C65.6671 106.94 66.4831 105.392 68.4991 105.392C70.5271 105.392 71.3431 106.94 71.3431 108.704C71.3431 110.468 70.5271 112.028 68.4991 112.028ZM74.1312 113H75.4272V106.34H75.4512L77.8152 113H78.9072L81.2712 106.34H81.2952V113H82.5912V104.42H80.8512L78.3672 111.164H78.3432L75.8712 104.42H74.1312V113ZM85.6873 107.996V105.56H90.4393V104.42H84.3673V113H90.5593V111.86H85.6873V109.136H89.8513V107.996H85.6873Z" fill="#252422"/>
<line x1="2" y1="87.5858" x2="88.267" y2="1.31876" stroke="#252422" stroke-width="2" stroke-linecap="round"/>
<line x1="3.41421" y1="1" x2="89.6812" y2="87.267" stroke="#252422" stroke-width="2" stroke-linecap="round"/>
<circle cx="45.5" cy="45.5" r="42.6" stroke="#252422" stroke-width="1.8"/>
</svg>
