<svg width="932" height="127" viewBox="0 0 932 127" fill="none" xmlns="http://www.w3.org/2000/svg">
<path d="M87.4819 1.3041L62.0613 47.4453C61.8434 47.8392 61.524 48.1675 61.1362 48.3962C60.7484 48.6248 60.3065 48.7454 59.8563 48.7454C59.4062 48.7454 58.9643 48.6248 58.5765 48.3962C58.1887 48.1675 57.8693 47.8392 57.6513 47.4453L32.2182 1.3041C32.0008 0.909463 31.6816 0.580322 31.2938 0.350961C30.906 0.1216 30.4638 0.000407026 30.0132 3.24002e-06H2.52C1.85166 3.24002e-06 1.21068 0.265503 0.738091 0.738095C0.265499 1.21069 0 1.85166 0 2.52001L0 123.48C0 124.148 0.265499 124.789 0.738091 125.262C1.21068 125.735 1.85166 126 2.52 126H28.98C29.6484 126 30.2893 125.735 30.7619 125.262C31.2345 124.789 31.5 124.148 31.5 123.48V69.8545C31.4989 69.2908 31.6869 68.7431 32.0337 68.2988C32.3806 67.8546 32.8664 67.5394 33.4134 67.4037C33.9605 67.2681 34.5372 67.3197 35.0515 67.5504C35.5657 67.7811 35.9878 68.1775 36.2502 68.6764L57.6198 109.173C57.8336 109.579 58.1544 109.919 58.5474 110.157C58.9405 110.394 59.3909 110.519 59.85 110.519C60.3092 110.519 60.7596 110.394 61.1527 110.157C61.5457 109.919 61.8665 109.579 62.0802 109.173L83.4499 68.6701C83.7123 68.1712 84.1344 67.7748 84.6486 67.5441C85.1629 67.3134 85.7396 67.2618 86.2867 67.3974C86.8337 67.5331 87.3195 67.8483 87.6664 68.2925C88.0132 68.7368 88.2011 69.2845 88.2001 69.8482V123.48C88.2001 124.148 88.4656 124.789 88.9382 125.262C89.4108 125.735 90.0517 126 90.7201 126H117.18C117.848 126 118.489 125.735 118.962 125.262C119.435 124.789 119.7 124.148 119.7 123.48V2.52001C119.7 1.85166 119.435 1.21069 118.962 0.738095C118.489 0.265503 117.848 3.24002e-06 117.18 3.24002e-06H89.6932C89.2415 -0.000720863 88.798 0.119939 88.409 0.349358C88.02 0.578778 87.6998 0.908526 87.4819 1.3041Z" fill="#252422"/>
<path d="M207.9 2.52V61.1101C207.9 61.6561 207.723 62.1874 207.395 62.624C207.067 63.0606 206.606 63.3789 206.082 63.5309C205.558 63.683 204.998 63.6606 204.487 63.4672C203.977 63.2737 203.543 62.9196 203.251 62.4583L164.544 1.1781C164.316 0.817013 164.001 0.519503 163.628 0.31345C163.254 0.107396 162.834 -0.000454869 162.408 1.44196e-06H134.82C134.152 1.44196e-06 133.511 0.265501 133.038 0.738093C132.566 1.21069 132.3 1.85166 132.3 2.52V123.48C132.3 124.148 132.566 124.789 133.038 125.262C133.511 125.735 134.152 126 134.82 126H161.28C161.949 126 162.59 125.735 163.062 125.262C163.535 124.789 163.8 124.148 163.8 123.48V64.8901C163.8 64.344 163.977 63.8127 164.305 63.3761C164.633 62.9395 165.094 62.6212 165.618 62.4692C166.143 62.3171 166.702 62.3395 167.213 62.5329C167.724 62.7264 168.158 63.0805 168.45 63.5419L207.157 124.828C207.384 125.189 207.699 125.487 208.073 125.693C208.446 125.899 208.866 126.007 209.293 126.006H236.88C237.549 126.006 238.19 125.741 238.662 125.268C239.135 124.796 239.4 124.155 239.4 123.486V2.52C239.4 1.85166 239.135 1.21069 238.662 0.738093C238.19 0.265501 237.549 1.44196e-06 236.88 1.44196e-06H210.42C209.752 1.44196e-06 209.111 0.265501 208.638 0.738093C208.166 1.21069 207.9 1.85166 207.9 2.52Z" fill="#252422"/>
<path d="M280.98 126H254.52C253.852 126 253.211 125.735 252.738 125.262C252.266 124.789 252 124.148 252 123.48V2.52C252 1.85166 252.266 1.21068 252.738 0.738091C253.211 0.265499 253.852 0 254.52 0L280.98 0C281.648 0 282.289 0.265499 282.762 0.738091C283.235 1.21068 283.5 1.85166 283.5 2.52V123.48C283.5 124.148 283.235 124.789 282.762 125.262C282.289 125.735 281.648 126 280.98 126Z" fill="#252422"/>
<path d="M354.867 2.36126e-06H325.95C325.496 -0.000618544 325.05 0.121401 324.66 0.353166C324.269 0.584932 323.949 0.917837 323.732 1.3167L285.51 71.8768C285.301 72.2608 285.196 72.6926 285.204 73.1297C285.213 73.5667 285.335 73.994 285.559 74.3696C285.783 74.7451 286.1 75.0561 286.48 75.2718C286.861 75.4875 287.29 75.6007 287.727 75.6001H295.647C296.101 75.5994 296.546 75.7215 296.937 75.9532C297.327 76.185 297.647 76.5179 297.864 76.9168L323.732 124.677C323.949 125.076 324.269 125.409 324.66 125.641C325.05 125.872 325.496 125.994 325.95 125.994H354.867C355.304 125.994 355.733 125.881 356.114 125.666C356.494 125.45 356.811 125.139 357.035 124.763C357.259 124.388 357.381 123.96 357.39 123.523C357.398 123.086 357.293 122.655 357.084 122.271L325.622 64.1908C325.422 63.8222 325.318 63.4097 325.318 62.9906C325.318 62.5715 325.422 62.159 325.622 61.7904L357.084 3.72331C357.293 3.33922 357.398 2.90745 357.39 2.4704C357.381 2.03335 357.259 1.60605 357.035 1.23048C356.811 0.854914 356.494 0.543992 356.114 0.32826C355.733 0.112527 355.304 -0.000595974 354.867 2.36126e-06Z" fill="#252422"/>
<path d="M485.856 96.8954C480.596 95.4724 475.614 93.1698 471.121 90.0851C467.479 87.619 464.389 84.4223 462.049 80.6981C461.948 80.5267 461.909 80.3254 461.94 80.1288C461.971 79.9323 462.07 79.7526 462.219 79.6208L468.752 73.8059C468.848 73.7206 468.962 73.6584 469.085 73.6242C469.209 73.5899 469.338 73.5844 469.464 73.6081C469.59 73.6319 469.709 73.6842 469.812 73.7611C469.914 73.8379 469.998 73.9373 470.056 74.0516C471.774 77.0338 474.143 79.59 476.986 81.5297C480.761 84.1631 484.943 86.1575 489.366 87.4328C494.176 88.8797 499.173 89.6079 504.196 89.5937C507.97 89.6511 511.734 89.1825 515.378 88.2014C518.18 87.4961 520.772 86.1309 522.938 84.2198C523.758 83.5345 524.426 82.6847 524.897 81.7254C525.368 80.766 525.632 79.7185 525.673 78.6506C525.609 77.2671 525.15 75.9309 524.35 74.7999C523.551 73.669 522.445 72.7906 521.162 72.2687C516.578 70.2051 511.68 68.9272 506.672 68.4887L490.55 66.1828C483.877 65.4792 477.432 63.3524 471.65 59.9458C469.713 58.5606 468.16 56.706 467.136 54.5561C466.112 52.4061 465.652 50.0313 465.797 47.6545C465.731 43.5489 467.223 39.5708 469.974 36.5224C473.123 33.1541 477.091 30.6582 481.491 29.2774C486.832 27.5193 492.43 26.6675 498.053 26.7574C502.942 26.7293 507.814 27.3435 512.543 28.5844C516.759 29.6688 520.792 31.367 524.513 33.6244C527.498 35.4055 530.1 37.7609 532.168 40.5544C532.282 40.7186 532.334 40.9174 532.317 41.1164C532.3 41.3154 532.214 41.5022 532.073 41.6443L526.284 47.5222C526.197 47.6047 526.094 47.6679 525.981 47.7076C525.869 47.7473 525.749 47.7626 525.63 47.7525C525.51 47.7424 525.395 47.707 525.29 47.6489C525.186 47.5907 525.095 47.5111 525.024 47.4151C523.389 45.2461 521.372 43.3948 519.07 41.953C516.11 40.0666 512.873 38.6571 509.475 37.7761C505.747 36.7998 501.907 36.3169 498.053 36.3397C494.647 36.3047 491.252 36.7566 487.973 37.6816C485.286 38.3714 482.791 39.6641 480.678 41.4616C479.873 42.1043 479.215 42.9131 478.751 43.8329C478.287 44.7527 478.026 45.7618 477.988 46.7914C478.008 47.9873 478.359 49.1542 479.003 50.162C479.647 51.1698 480.559 51.979 481.636 52.4992C485.243 54.3074 489.142 55.4614 493.152 55.9075L508.902 58.1125C516.689 58.6967 524.255 60.9736 531.072 64.7842C533.236 66.1157 535.014 67.9902 536.23 70.2216C537.446 72.4529 538.056 74.9635 538.002 77.504C538.071 81.7382 536.525 85.8399 533.68 88.9763C530.344 92.4899 526.165 95.0923 521.54 96.5363C515.77 98.4463 509.719 99.3707 503.641 99.2705C497.639 99.2986 491.661 98.4907 485.882 96.8702" fill="#252422"/>
<path d="M572.355 38.9087H543.054C542.942 38.9095 542.831 38.8881 542.728 38.8456C542.624 38.8032 542.53 38.7406 542.451 38.6614C542.372 38.5823 542.309 38.4882 542.267 38.3846C542.224 38.2811 542.203 38.1701 542.203 38.0582V29.8682C542.203 29.7568 542.226 29.6465 542.268 29.5436C542.311 29.4408 542.374 29.3474 542.453 29.269C542.532 29.1905 542.626 29.1284 542.729 29.0864C542.832 29.0443 542.943 29.0231 543.054 29.0239H615.649C615.76 29.0231 615.871 29.0443 615.974 29.0864C616.077 29.1284 616.171 29.1905 616.25 29.269C616.329 29.3474 616.392 29.4408 616.435 29.5436C616.477 29.6465 616.5 29.7568 616.5 29.8682V38.0582C616.5 38.1701 616.479 38.2811 616.436 38.3846C616.394 38.4882 616.331 38.5823 616.252 38.6614C616.173 38.7406 616.079 38.8032 615.975 38.8456C615.872 38.8881 615.761 38.9095 615.649 38.9087H586.329C586.217 38.9078 586.107 38.929 586.004 38.9711C585.901 39.0132 585.807 39.0752 585.728 39.1537C585.649 39.2322 585.586 39.3255 585.543 39.4283C585.5 39.5312 585.478 39.6415 585.478 39.7529V96.1316C585.478 96.3555 585.389 96.5702 585.231 96.7285C585.073 96.8869 584.858 96.9758 584.634 96.9758H574.044C573.819 96.9758 573.604 96.8871 573.445 96.7289C573.285 96.5708 573.195 96.3561 573.193 96.1316V39.7529C573.192 39.5284 573.101 39.3137 572.942 39.1555C572.783 38.9974 572.567 38.9087 572.343 38.9087" fill="#252422"/>
<path d="M644.163 95.2559C638.577 92.8323 633.835 88.8071 630.536 83.6891C627.154 78.169 625.453 71.7832 625.641 65.312V29.8745C625.64 29.7625 625.662 29.6516 625.704 29.548C625.746 29.4444 625.809 29.3503 625.888 29.2712C625.967 29.192 626.061 29.1294 626.165 29.087C626.269 29.0445 626.38 29.0231 626.492 29.0239H637.233C637.345 29.0231 637.456 29.0445 637.559 29.087C637.663 29.1294 637.757 29.192 637.836 29.2712C637.915 29.3503 637.978 29.4444 638.02 29.548C638.063 29.6516 638.084 29.7625 638.083 29.8745V65.2112C637.947 69.794 639.076 74.3259 641.347 78.3089C643.505 81.91 646.749 84.7335 650.614 86.3729C655.035 88.2155 659.793 89.1145 664.581 89.0126C669.323 89.1112 674.032 88.2119 678.404 86.3729C682.254 84.7134 685.491 81.8945 687.665 78.3089C689.964 74.3356 691.109 69.7997 690.972 65.2112V29.8745C690.972 29.6489 691.062 29.4326 691.221 29.2731C691.381 29.1136 691.597 29.0239 691.823 29.0239H702.413C702.638 29.0239 702.855 29.1136 703.014 29.2731C703.174 29.4326 703.263 29.6489 703.263 29.8745V65.312C703.452 71.7832 701.751 78.169 698.368 83.6891C695.069 88.8064 690.327 92.8314 684.741 95.2559C671.715 100.503 657.164 100.503 644.138 95.2559" fill="#252422"/>
<path d="M716.701 29.8744C716.701 29.6499 716.79 29.4345 716.948 29.2752C717.106 29.1159 717.321 29.0255 717.545 29.0239H759.321C769.854 28.3266 780.285 31.4589 788.691 37.8439C792.177 40.9968 794.909 44.8927 796.687 49.2436C798.464 53.5946 799.241 58.2893 798.96 62.9809C799.172 69.4429 797.594 75.8378 794.399 81.4588C791.215 86.613 786.499 90.6421 780.911 92.9815C774.039 95.8131 766.649 97.1696 759.22 96.9631H717.539C717.315 96.9615 717.1 96.8711 716.942 96.7118C716.784 96.5525 716.695 96.3371 716.695 96.1126L716.701 29.8744ZM758.552 87.2863C763.819 87.432 769.055 86.4504 773.911 84.4072C777.907 82.6837 781.287 79.7912 783.607 76.1101C785.937 72.1486 787.073 67.598 786.877 63.0061C787.076 59.6619 786.518 56.3159 785.246 53.217C783.973 50.1182 782.017 47.3463 779.525 45.1078C773.52 40.5524 766.073 38.3155 758.552 38.8078H729.742C729.631 38.8078 729.52 38.8298 729.418 38.8726C729.315 38.9155 729.221 38.9782 729.143 39.0573C729.064 39.1363 729.002 39.2301 728.96 39.3333C728.918 39.4364 728.897 39.5469 728.898 39.6583V86.4358C728.897 86.5472 728.918 86.6577 728.96 86.7608C729.002 86.864 729.064 86.9578 729.143 87.0368C729.221 87.1159 729.315 87.1786 729.418 87.2215C729.52 87.2643 729.631 87.2863 729.742 87.2863H758.552Z" fill="#252422"/>
<path d="M813.154 29.0239H823.865C823.976 29.0231 824.087 29.0445 824.191 29.087C824.295 29.1294 824.389 29.192 824.468 29.2712C824.547 29.3503 824.609 29.4444 824.652 29.548C824.694 29.6516 824.716 29.7625 824.715 29.8745V96.1379C824.715 96.2493 824.693 96.3596 824.65 96.4624C824.607 96.5653 824.545 96.6586 824.466 96.7371C824.386 96.8156 824.293 96.8776 824.189 96.9197C824.086 96.9617 823.976 96.9829 823.865 96.9821H813.154C812.93 96.9821 812.715 96.8934 812.555 96.7352C812.396 96.5771 812.306 96.3624 812.304 96.1379V29.8745C812.304 29.6489 812.394 29.4326 812.553 29.2731C812.713 29.1136 812.929 29.0239 813.154 29.0239Z" fill="#252422"/>
<path d="M860.48 94.8208C853.85 92.1519 848.088 87.7018 843.829 81.9625C839.833 76.4576 837.727 69.8072 837.825 63.0058C837.754 56.2532 839.86 49.6572 843.829 44.194C848.094 38.4165 853.874 33.9314 860.53 31.2349C876.204 25.0916 893.619 25.0916 909.292 31.2349C915.947 33.9325 921.727 38.4174 925.994 44.194C929.97 49.6872 932.075 56.3132 931.998 63.094C932.082 69.8711 929.959 76.4917 925.949 81.9562C921.663 87.6893 915.887 92.1368 909.248 94.8145C893.563 100.896 876.171 100.896 860.486 94.8145M902.917 86.0323C907.793 84.0767 912.042 80.8239 915.202 76.6264C918.073 72.6619 919.62 67.8917 919.62 62.9964C919.62 58.1011 918.073 53.3308 915.202 49.3663C912.036 45.1641 907.79 41.8983 902.917 39.9163C897.199 37.5555 891.058 36.3953 884.874 36.508C878.734 36.3973 872.638 37.5577 866.969 39.9163C862.112 41.9065 857.883 45.1715 854.728 49.3663C851.859 53.3319 850.314 58.1017 850.314 62.9964C850.314 67.891 851.859 72.6608 854.728 76.6264C857.877 80.8164 862.109 84.0684 866.969 86.0323C872.645 88.3618 878.739 89.5045 884.874 89.3902C891.053 89.5062 897.192 88.3638 902.917 86.0323Z" fill="#252422"/>
<path d="M444.031 58.2747H422.126C421.827 58.2742 421.535 58.185 421.286 58.0185C421.038 57.8519 420.844 57.6154 420.73 57.3389C420.616 57.0625 420.587 56.7584 420.646 56.4652C420.705 56.172 420.849 55.9028 421.061 55.6917L436.546 40.2063C436.704 40.0481 436.792 39.8341 436.792 39.611C436.792 39.3879 436.704 39.1738 436.546 39.0156L431.053 33.522C430.895 33.3647 430.681 33.2763 430.457 33.2763C430.234 33.2763 430.02 33.3647 429.862 33.522L414.377 49.0074C414.166 49.2193 413.896 49.3637 413.603 49.4226C413.31 49.4814 413.006 49.452 412.729 49.338C412.453 49.2241 412.217 49.0307 412.05 48.7823C411.883 48.534 411.794 48.2418 411.794 47.9427V26.0376C411.792 25.8159 411.703 25.6037 411.547 25.4469C411.39 25.2902 411.178 25.2014 410.956 25.1997H403.156C402.935 25.2014 402.723 25.2902 402.566 25.4469C402.409 25.6037 402.32 25.8159 402.319 26.0376V47.9427C402.318 48.2418 402.229 48.534 402.062 48.7823C401.896 49.0307 401.659 49.2241 401.383 49.338C401.106 49.452 400.802 49.4814 400.509 49.4226C400.216 49.3637 399.947 49.2193 399.736 49.0074L384.256 33.522C384.098 33.3647 383.884 33.2763 383.661 33.2763C383.438 33.2763 383.224 33.3647 383.066 33.522L377.572 39.0156C377.415 39.1738 377.326 39.3879 377.326 39.611C377.326 39.8341 377.415 40.0481 377.572 40.2063L393.076 55.6917C393.288 55.9028 393.433 56.172 393.492 56.4652C393.55 56.7584 393.521 57.0625 393.407 57.3389C393.293 57.6154 393.1 57.8519 392.851 58.0185C392.603 58.185 392.311 58.2742 392.012 58.2747H370.107C369.885 58.2764 369.673 58.3652 369.516 58.522C369.359 58.6788 369.27 58.8909 369.269 59.1126V66.8805C369.27 67.1023 369.359 67.3144 369.516 67.4712C369.673 67.628 369.885 67.7168 370.107 67.7184H392.012C392.311 67.719 392.603 67.8081 392.851 67.9747C393.1 68.1413 393.293 68.3778 393.407 68.6542C393.521 68.9307 393.55 69.2348 393.492 69.528C393.433 69.8212 393.288 70.0904 393.076 70.3014L377.591 85.7869C377.434 85.945 377.345 86.1591 377.345 86.3822C377.345 86.6053 377.434 86.8194 377.591 86.9776L383.085 92.4712C383.243 92.6285 383.457 92.7168 383.68 92.7168C383.903 92.7168 384.117 92.6285 384.275 92.4712L399.761 76.9858C399.972 76.7739 400.241 76.6295 400.534 76.5706C400.827 76.5118 401.131 76.5412 401.408 76.6551C401.684 76.7691 401.921 76.9625 402.087 77.2109C402.254 77.4592 402.343 77.7514 402.344 78.0505V99.9556C402.344 100.174 402.428 100.384 402.58 100.542C402.731 100.699 402.938 100.792 403.156 100.8H410.924C411.146 100.798 411.358 100.709 411.515 100.553C411.672 100.396 411.761 100.184 411.762 99.9619V78.0568C411.763 77.7577 411.852 77.4655 412.018 77.2172C412.185 76.9688 412.422 76.7754 412.698 76.6614C412.974 76.5475 413.279 76.5181 413.572 76.5769C413.865 76.6358 414.134 76.7802 414.345 76.9921L429.831 92.4775C429.989 92.6348 430.203 92.7231 430.426 92.7231C430.649 92.7231 430.863 92.6348 431.021 92.4775L436.515 86.9839C436.672 86.8257 436.761 86.6116 436.761 86.3885C436.761 86.1654 436.672 85.9513 436.515 85.7932L421.061 70.3077C420.849 70.0967 420.705 69.8275 420.646 69.5343C420.587 69.2411 420.616 68.937 420.73 68.6605C420.844 68.384 421.038 68.1476 421.286 67.981C421.535 67.8144 421.827 67.7253 422.126 67.7247H444.031C444.253 67.7231 444.465 67.6343 444.622 67.4775C444.778 67.3207 444.867 67.1086 444.869 66.8868V59.1126C444.867 58.8909 444.778 58.6788 444.622 58.522C444.465 58.3652 444.253 58.2764 444.031 58.2747Z" fill="#252422"/>
</svg>
