<?xml version="1.0" encoding="UTF-8" standalone="no"?>
<svg
   width="148"
   height="20"
   viewBox="0 0 148 20"
   fill="none"
   version="1.1"
   id="svg24"
   sodipodi:docname="LogoYellow.svg"
   inkscape:version="1.1.1 (3bf5ae0d25, 2021-09-20)"
   xmlns:inkscape="http://www.inkscape.org/namespaces/inkscape"
   xmlns:sodipodi="http://sodipodi.sourceforge.net/DTD/sodipodi-0.dtd"
   xmlns="http://www.w3.org/2000/svg"
   xmlns:svg="http://www.w3.org/2000/svg">
  <defs
     id="defs28" />
  <sodipodi:namedview
     id="namedview26"
     pagecolor="#ffffff"
     bordercolor="#666666"
     borderopacity="1.0"
     inkscape:pageshadow="2"
     inkscape:pageopacity="0.0"
     inkscape:pagecheckerboard="0"
     showgrid="false"
     inkscape:zoom="7.1486486"
     inkscape:cx="73.930057"
     inkscape:cy="10.00189"
     inkscape:window-width="1920"
     inkscape:window-height="1009"
     inkscape:window-x="1912"
     inkscape:window-y="-8"
     inkscape:window-maximized="1"
     inkscape:current-layer="svg24" />
  <path
     d="m 17.862902,2.1248758 -3.76792,5.8897299 c -0.0323,0.050277 -0.07965,0.092182 -0.137129,0.1213651 -0.05748,0.029183 -0.122983,0.044575 -0.189704,0.044575 -0.06672,0 -0.132227,-0.015392 -0.189703,-0.044575 -0.05748,-0.029183 -0.104829,-0.071089 -0.13713,-0.1213651 L 9.6715293,2.1248758 C 9.6393036,2.0745011 9.5919875,2.0324878 9.5345115,2.0032108 9.4770262,1.9739338 9.4114822,1.9584641 9.3446962,1.9584125 H 5.2695538 c -0.099065,0 -0.1940716,0.03389 -0.2641213,0.094214 -0.070049,0.060324 -0.1094023,0.1421416 -0.1094023,0.2274534 V 17.720116 c 0,0.08532 0.039353,0.167107 0.1094023,0.227419 0.07005,0.06039 0.1650563,0.09425 0.2641213,0.09425 h 3.9219977 c 0.099068,0 0.1940735,-0.03386 0.2641185,-0.09425 0.070054,-0.06031 0.1094051,-0.142096 0.1094051,-0.227419 v -6.845083 c -1.588e-4,-0.07197 0.027697,-0.141855 0.079103,-0.198549 0.051416,-0.05669 0.1234216,-0.09698 0.2045042,-0.114272 0.081092,-0.01729 0.1665727,-0.0107 0.2427997,0.01874 0.07623,0.02943 0.138792,0.08001 0.177685,0.143705 l 3.16748,5.169196 c 0.03168,0.05187 0.07922,0.09529 0.137485,0.125611 0.05826,0.03032 0.125027,0.04632 0.193083,0.04632 0.06806,0 0.134824,-0.016 0.193084,-0.04632 0.05826,-0.03032 0.105801,-0.07374 0.137485,-0.125611 l 3.16748,-5.17 c 0.03894,-0.06369 0.101411,-0.114273 0.177704,-0.143705 0.0762,-0.02943 0.161735,-0.03603 0.24279,-0.01874 0.08105,0.01729 0.153051,0.05758 0.204504,0.114272 0.05136,0.05669 0.07928,0.126576 0.07909,0.198549 v 6.845887 c 0,0.08532 0.03931,0.167107 0.109442,0.227419 0.07004,0.06039 0.165004,0.09425 0.264081,0.09425 h 3.921998 c 0.09908,0 0.194046,-0.03386 0.264081,-0.09425 0.07013,-0.06031 0.109443,-0.142096 0.109443,-0.227419 V 2.2800803 c 0,-0.085312 -0.03931,-0.1671295 -0.109443,-0.2274534 -0.07004,-0.060325 -0.165004,-0.094214 -0.264081,-0.094214 h -4.074208 c -0.06696,-9.24e-5 -0.132695,0.015309 -0.190311,0.044594 -0.05771,0.029285 -0.105147,0.071375 -0.137456,0.1218697 z"
     fill="#f6ff85"
     id="path2"
     style="stroke-width:0.866568" />
  <path
     d="m 35.711726,2.2800795 v 7.4787679 c 0,0.069697 -0.02624,0.1375128 -0.07489,0.1932497 -0.04856,0.055721 -0.116913,0.096331 -0.194606,0.1157919 -0.07769,0.01938 -0.160709,0.01657 -0.236347,-0.0082 -0.07573,-0.02469 -0.140071,-0.06985 -0.183307,-0.1287475 L 29.285253,2.1087916 c -0.03371,-0.046092 -0.0804,-0.084067 -0.135776,-0.110369 -0.05538,-0.026302 -0.117566,-0.040069 -0.180785,-0.04001 h -4.08915 c -0.09908,0 -0.194045,0.03389 -0.264081,0.094215 -0.07013,0.060324 -0.109442,0.1421416 -0.109442,0.2274526 V 17.720116 c 0,0.08532 0.03931,0.167107 0.109442,0.227419 0.07004,0.06039 0.165004,0.09425 0.264081,0.09425 h 3.921998 c 0.09908,0 0.194045,-0.03386 0.264081,-0.09425 0.07013,-0.06031 0.109442,-0.142096 0.109442,-0.227419 v -7.478767 c 0,-0.06972 0.02624,-0.137513 0.07489,-0.193242 0.04856,-0.055737 0.116913,-0.096364 0.194606,-0.1157763 0.07769,-0.019413 0.160708,-0.01655 0.236347,0.00814 0.07573,0.024696 0.140071,0.069922 0.183306,0.1287873 l 5.737323,7.822952 c 0.03371,0.04608 0.0804,0.08404 0.135776,0.110332 0.05537,0.02638 0.117566,0.04013 0.180785,0.04005 h 4.089149 c 0.09908,0 0.194046,-0.03386 0.264082,-0.09425 0.07013,-0.06031 0.109442,-0.142096 0.109442,-0.227418 V 2.2800795 c 0,-0.085311 -0.03931,-0.1671287 -0.109442,-0.2274526 -0.07004,-0.060325 -0.165004,-0.094215 -0.264082,-0.094215 H 36.08525 c -0.09908,0 -0.194046,0.03389 -0.264081,0.094215 -0.07013,0.060324 -0.109443,0.1421416 -0.109443,0.2274526 z"
     fill="#f6ff85"
     id="path4"
     style="stroke-width:0.866568" />
  <path
     d="m 46.54391,18.041784 h -3.921997 c -0.09908,0 -0.194046,-0.03386 -0.264082,-0.09425 -0.07013,-0.06031 -0.109442,-0.142096 -0.109442,-0.227419 V 2.2800795 c 0,-0.085312 0.03931,-0.1671287 0.109442,-0.2274534 0.07004,-0.060324 0.165004,-0.094214 0.264082,-0.094214 h 3.921997 c 0.09908,0 0.194046,0.03389 0.264081,0.094214 0.07013,0.060325 0.109443,0.1421416 0.109443,0.2274534 V 17.720116 c 0,0.08532 -0.03931,0.167107 -0.109443,0.227419 -0.07004,0.06039 -0.165004,0.09425 -0.264081,0.09425 z"
     fill="#f6ff85"
     id="path6"
     style="stroke-width:0.866568" />
  <path
     d="m 57.495622,1.9584124 h -4.286183 c -0.06733,-7.93e-5 -0.133348,0.015496 -0.191244,0.04508 -0.0578,0.029584 -0.105334,0.072077 -0.137457,0.122991 l -5.665419,9.0066876 c -0.03091,0.04905 -0.0465,0.10414 -0.04529,0.15995 0.0013,0.05573 0.01942,0.110332 0.05257,0.15826 0.03315,0.04793 0.08021,0.08765 0.136522,0.115157 0.0564,0.0275 0.120088,0.04198 0.184895,0.0419 h 1.173797 c 0.06733,-8e-5 0.133348,0.01552 0.191245,0.04511 0.0578,0.02951 0.105333,0.07205 0.137456,0.122957 l 3.83422,6.096402 c 0.03212,0.0509 0.07965,0.09345 0.137457,0.122958 0.0579,0.02959 0.123916,0.04519 0.191244,0.04511 h 4.286183 c 0.06481,8e-5 0.128492,-0.0144 0.184801,-0.0419 0.0564,-0.0275 0.103466,-0.06723 0.136616,-0.115156 0.03315,-0.04793 0.05127,-0.102532 0.05257,-0.158261 0.0012,-0.05581 -0.01438,-0.110895 -0.04529,-0.159949 l -4.663442,-7.41363 c -0.0296,-0.04704 -0.0451,-0.09972 -0.0451,-0.1531942 0,-0.053501 0.0155,-0.1061502 0.0451,-0.1531941 l 4.663442,-7.4120219 c 0.03091,-0.049026 0.0465,-0.1041398 0.04529,-0.1599282 -0.0013,-0.055788 -0.01942,-0.1103303 -0.05257,-0.15827 -0.03315,-0.04794 -0.08021,-0.087627 -0.136616,-0.1151644 -0.05631,-0.027537 -0.119995,-0.041977 -0.184801,-0.041901 z"
     fill="#f6ff85"
     id="path8"
     style="stroke-width:0.866568" />
  <path
     d="m 76.911378,14.326605 c -0.779731,-0.181661 -1.518187,-0.475505 -2.184179,-0.869306 -0.539835,-0.314751 -0.997775,-0.722787 -1.344685,-1.198211 -0.01494,-0.02187 -0.02064,-0.04753 -0.01606,-0.07262 0.0046,-0.02509 0.01924,-0.04809 0.04127,-0.0649 l 0.96836,-0.742247 c 0.01419,-0.01086 0.0311,-0.01882 0.0494,-0.02316 0.0183,-0.0044 0.03754,-0.0051 0.05622,-0.0021 0.01868,0.0031 0.03632,0.0097 0.05155,0.01954 0.01513,0.0098 0.02755,0.02252 0.03614,0.03707 0.25465,0.380693 0.605762,0.706945 1.02719,0.954548 0.559538,0.336143 1.179494,0.590742 1.834934,0.753506 0.712964,0.184718 1.453754,0.27768 2.198187,0.27583 0.559445,0.0073 1.117302,-0.05243 1.657511,-0.177721 0.415265,-0.08999 0.799527,-0.26425 1.12057,-0.508235 0.121582,-0.08749 0.220473,-0.195895 0.290322,-0.31837 0.06976,-0.122475 0.108975,-0.256208 0.114952,-0.392515 -0.0094,-0.176595 -0.07741,-0.347159 -0.195914,-0.491508 -0.1185,-0.144348 -0.282477,-0.256449 -0.472694,-0.323115 -0.679439,-0.263365 -1.405476,-0.426531 -2.14776,-0.482501 L 77.607066,10.406284 C 76.617882,10.316458 75.662595,10.044971 74.805639,9.6101727 74.518586,9.4333521 74.288402,9.196621 74.136658,8.9221904 73.984914,8.6477598 73.916559,8.3446204 73.93813,8.0412398 73.928232,7.5171712 74.149544,7.0093789 74.557245,6.6202739 75.024057,6.1903171 75.612169,5.8717216 76.264248,5.69548 c 0.791777,-0.2244193 1.62156,-0.3331429 2.454984,-0.3216674 0.724729,-0.00359 1.446844,0.074812 2.147761,0.2332089 0.624811,0.1384135 1.222636,0.3551771 1.774237,0.6433348 0.442438,0.2273385 0.828101,0.5280011 1.134578,0.8845855 0.0169,0.020957 0.02475,0.046328 0.02213,0.071732 -0.0025,0.025404 -0.01532,0.049239 -0.03614,0.067389 l -0.85817,0.7502892 c -0.01279,0.010527 -0.02811,0.018592 -0.04482,0.023659 -0.01672,0.00507 -0.03446,0.00702 -0.05211,0.00573 -0.01765,-0.00129 -0.03483,-0.0058 -0.05024,-0.013221 C 82.740958,8.0331 82.727508,8.022925 82.716868,8.010685 82.474638,7.7338061 82.175539,7.4975012 81.834419,7.3134672 81.395715,7.072667 80.915831,6.8927503 80.412228,6.7803034 79.859693,6.6556814 79.290443,6.5940339 78.719232,6.596953 c -0.50491,-0.00447 -1.008047,0.053204 -1.494094,0.1712879 -0.39827,0.08804 -0.768058,0.2530477 -1.081351,0.4825012 -0.119341,0.082033 -0.216737,0.1852724 -0.285559,0.302681 -0.06882,0.1174086 -0.107388,0.2462203 -0.113178,0.3776456 0.003,0.1526473 0.05509,0.3015954 0.15053,0.4302382 0.09544,0.1286429 0.230558,0.2319303 0.390146,0.2983385 0.534699,0.2308045 1.112633,0.3781121 1.707003,0.4350552 l 2.334522,0.281459 c 1.154281,0.074555 2.275786,0.3651971 3.286074,0.8515984 0.320857,0.170001 0.584377,0.409241 0.764603,0.694078 0.180225,0.284837 0.270711,0.605298 0.262587,0.929538 0.01027,0.540482 -0.218792,1.064076 -0.640593,1.464391 -0.494452,0.448485 -1.113848,0.780687 -1.79945,0.965003 -0.855276,0.243824 -1.752106,0.361795 -2.652951,0.349009 -0.889734,0.0036 -1.775638,-0.09956 -2.632408,-0.306388"
     fill="#f6ff85"
     id="path10"
     style="stroke-width:0.866568" />
  <path
     d="m 89.732575,6.924909 h -4.343146 c -0.01662,1.046e-4 -0.03306,-0.00263 -0.04837,-0.00805 -0.01541,-0.00541 -0.02932,-0.013405 -0.04109,-0.023514 -0.01167,-0.0101 -0.02101,-0.022107 -0.02727,-0.035327 -0.0064,-0.013221 -0.0095,-0.02739 -0.0093,-0.041672 V 5.7709271 c 0,-0.014218 0.0033,-0.028299 0.0096,-0.041423 0.0063,-0.013132 0.01559,-0.025042 0.02736,-0.035062 0.01167,-0.01002 0.02559,-0.017941 0.0409,-0.023305 0.01531,-0.00537 0.03166,-0.00807 0.04818,-0.00797 H 96.14971 c 0.01653,-1.045e-4 0.03287,0.0026 0.04819,0.00797 0.01522,0.00536 0.02913,0.013285 0.0409,0.023305 0.01167,0.01002 0.02101,0.02193 0.02736,0.035062 0.0064,0.013124 0.0096,0.027205 0.0096,0.041423 v 1.0454192 c 9.4e-5,0.014282 -0.0031,0.028452 -0.0093,0.041672 -0.0063,0.013221 -0.01559,0.025227 -0.02736,0.035327 -0.01167,0.010108 -0.02568,0.018102 -0.04099,0.023514 -0.01532,0.00542 -0.03184,0.00815 -0.04837,0.00805 h -4.345947 c -0.01653,-1.045e-4 -0.03287,0.0026 -0.04818,0.00797 -0.01532,0.00536 -0.02923,0.013285 -0.0409,0.023305 -0.01177,0.01002 -0.02101,0.02193 -0.02736,0.035062 -0.0063,0.013124 -0.0096,0.027205 -0.0096,0.041423 V 14.22914 c 0,0.02863 -0.01317,0.05605 -0.0367,0.07624 -0.02344,0.02018 -0.05528,0.03152 -0.08843,0.03152 H 89.98289 c -0.03334,0 -0.06518,-0.01126 -0.08881,-0.03144 -0.02363,-0.02027 -0.03707,-0.04761 -0.03726,-0.07632 V 7.0326676 C 89.856539,7.0040156 89.84319,6.9766086 89.81956,6.9564166 89.79593,6.9362316 89.764,6.9249096 89.73075,6.9249096"
     fill="#f6ff85"
     id="path12"
     style="stroke-width:0.866568" />
  <path
     d="m 100.37613,14.117361 c -0.828289,-0.309364 -1.530513,-0.823147 -2.019829,-1.476454 -0.501362,-0.704612 -0.753491,-1.519718 -0.72557,-2.34576 V 5.7717313 c -9.3e-5,-0.01429 0.0031,-0.028452 0.0093,-0.041672 0.0063,-0.013221 0.0156,-0.025235 0.02736,-0.035335 0.01167,-0.0101 0.02568,-0.018094 0.04099,-0.023514 0.01532,-0.00541 0.03184,-0.00815 0.04837,-0.00804 h 1.592145 c 0.01681,-1.126e-4 0.03268,0.00263 0.04856,0.00804 0.01494,0.00542 0.02895,0.013414 0.04109,0.023514 0.01121,0.0101 0.02054,0.022115 0.02708,0.035335 0.0065,0.013221 0.0093,0.027382 0.0093,0.041672 v 4.5105497 c -0.02054,0.585032 0.147542,1.163471 0.483713,1.671866 0.320291,0.459663 0.801211,0.820091 1.373631,1.029336 0.65553,0.235219 1.36056,0.349974 2.07025,0.336947 0.70316,0.01262 1.40072,-0.10221 2.04878,-0.336947 0.57056,-0.211818 1.05054,-0.571603 1.3727,-1.029336 0.34084,-0.507109 0.51079,-1.08611 0.49025,-1.671866 V 5.7717313 c 0,-0.028797 0.0131,-0.056404 0.0374,-0.076766 0.0233,-0.020361 0.0551,-0.031797 0.0887,-0.031797 h 1.56974 c 0.0336,0 0.0654,0.011435 0.0887,0.031797 0.0243,0.020362 0.0374,0.047969 0.0374,0.076766 v 4.5234157 c 0.028,0.826042 -0.22411,1.641148 -0.72557,2.34576 -0.48931,0.653226 -1.19154,1.16701 -2.01983,1.476454 -1.93111,0.669872 -4.08728,0.669872 -6.0184,0"
     fill="#f6ff85"
     id="path14"
     style="stroke-width:0.866568" />
  <path
     d="m 111.12801,5.7717634 c 0,-0.028653 0.0131,-0.056147 0.0364,-0.076484 0.0233,-0.020337 0.0551,-0.031869 0.0887,-0.032078 h 6.19208 c 1.56133,-0.089005 3.10772,0.3108272 4.35342,1.125836 0.5164,0.4024623 0.92167,0.8997521 1.185,1.455127 0.26334,0.5553829 0.37913,1.1546413 0.33711,1.7535057 0.0318,0.8248519 -0.20264,1.6411639 -0.67608,2.3586429 -0.47157,0.65789 -1.17099,1.172156 -1.99928,1.470824 -1.01879,0.361394 -2.11415,0.534531 -3.21511,0.508235 h -6.17808 c -0.0336,-2.41e-4 -0.0654,-0.01174 -0.0887,-0.03209 -0.0233,-0.02034 -0.0364,-0.04785 -0.0364,-0.07648 z m 6.20329,7.3284046 c 0.78066,0.01858 1.55666,-0.106713 2.27663,-0.367505 0.59203,-0.220021 1.09349,-0.589215 1.43713,-1.05909 0.34551,-0.505661 0.51359,-1.086593 0.48464,-1.672671 0.0299,-0.4268847 -0.0532,-0.8539947 -0.24185,-1.2495492 -0.18863,-0.3955544 -0.47811,-0.7493725 -0.8479,-1.0351097 -0.88992,-0.5814782 -1.99368,-0.8669983 -3.10865,-0.8041686 h -4.27031 c -0.0168,0 -0.0327,0.00281 -0.0486,0.00827 -0.0149,0.00547 -0.0289,0.013478 -0.0401,0.02357 -0.0121,0.010092 -0.0206,0.022066 -0.0271,0.035231 -0.007,0.013172 -0.009,0.027269 -0.009,0.041487 V 12.9916 c 0,0.01423 0.003,0.02831 0.009,0.04149 0.007,0.01311 0.0149,0.02509 0.0271,0.03522 0.0112,0.01005 0.0252,0.01809 0.0401,0.02356 0.0159,0.0055 0.0318,0.0083 0.0486,0.0083 z"
     fill="#f6ff85"
     id="path16"
     style="stroke-width:0.866568" />
  <path
     d="m 125.42462,5.6631685 h 1.58748 c 0.0168,-1.126e-4 0.0327,0.00263 0.0485,0.00804 0.0149,0.00542 0.029,0.013414 0.0411,0.023514 0.0112,0.0101 0.0206,0.022115 0.0271,0.035335 0.007,0.013221 0.009,0.027382 0.009,0.041672 v 8.4582125 c 0,0.01423 -0.003,0.02831 -0.009,0.04142 -0.007,0.01319 -0.0159,0.02509 -0.028,0.03506 -0.0112,0.01005 -0.0252,0.01801 -0.0402,0.02332 -0.0159,0.0054 -0.0317,0.0081 -0.0485,0.008 h -1.58748 c -0.0336,0 -0.0654,-0.01126 -0.0887,-0.03144 -0.0233,-0.02027 -0.0374,-0.04761 -0.0374,-0.07632 V 5.7717313 c 0,-0.028797 0.0131,-0.056404 0.0374,-0.076766 0.0233,-0.020361 0.0551,-0.031797 0.0887,-0.031797 z"
     fill="#f6ff85"
     id="path18"
     style="stroke-width:0.866568" />
  <path
     d="m 132.43939,14.061873 c -0.98236,-0.340646 -1.8368,-0.90871 -2.46805,-1.641308 -0.59204,-0.702683 -0.90486,-1.551563 -0.88992,-2.419743 -0.0103,-0.8619403 0.30162,-1.7038888 0.88992,-2.4012477 0.63219,-0.7374708 1.48942,-1.3099745 2.47552,-1.6541748 2.32332,-0.7841608 4.90437,-0.7841608 7.22769,0 0.9861,0.344345 1.84334,0.9168166 2.47552,1.6541748 0.58924,0.7011868 0.90113,1.546963 0.88992,2.4125057 0.0121,0.865044 -0.30255,1.710145 -0.89645,2.407681 -0.63499,0.731793 -1.4913,1.299536 -2.47553,1.641308 -2.32518,0.776344 -4.9025,0.776344 -7.22768,0 m 6.2892,-1.121011 c 0.72277,-0.249614 1.35216,-0.664806 1.82093,-1.200624 0.42582,-0.506063 0.6546,-1.11498 0.6546,-1.7398185 0,-0.6248632 -0.22878,-1.2337635 -0.6546,-1.7398188 -0.46971,-0.5363965 -1.09816,-0.9532534 -1.82093,-1.2062529 -0.84696,-0.3013461 -1.75743,-0.4494337 -2.67443,-0.4350552 -0.90953,-0.014129 -1.81345,0.1339906 -2.65388,0.4350552 -0.71997,0.254053 -1.34655,0.6708053 -1.81439,1.2062529 -0.42489,0.5062 -0.6546,1.1150441 -0.6546,1.7398188 0,0.6247585 0.22971,1.2335945 0.6546,1.7398185 0.4669,0.534853 1.09442,0.949965 1.81439,1.200624 0.84136,0.297381 1.74435,0.443177 2.65388,0.428622 0.91607,0.0148 1.8256,-0.130999 2.67443,-0.428622 z"
     fill="#f6ff85"
     id="path20"
     style="stroke-width:0.866568" />
  <path
     d="m 70.71182,9.3969715 h -3.246854 c -0.04436,-6.43e-5 -0.08759,-0.011451 -0.124383,-0.032714 -0.03688,-0.021262 -0.06555,-0.051443 -0.08245,-0.086738 -0.01681,-0.035287 -0.0212,-0.074104 -0.01251,-0.1115301 0.0088,-0.037426 0.03016,-0.07178 0.06154,-0.098728 L 69.602455,7.090616 c 0.02334,-0.020193 0.03642,-0.04751 0.03642,-0.075994 0,-0.028484 -0.01307,-0.055801 -0.03642,-0.075994 L 68.788174,6.2373931 c -0.02344,-0.020088 -0.05519,-0.031363 -0.08825,-0.031363 -0.03306,0 -0.06481,0.011274 -0.08825,0.031363 l -2.295303,1.9766464 c -0.03128,0.027036 -0.07116,0.045484 -0.114671,0.052995 -0.04342,0.00751 -0.08853,0.00376 -0.129426,-0.010792 -0.04099,-0.014547 -0.07611,-0.039235 -0.100758,-0.070936 -0.02465,-0.0317 -0.03791,-0.068998 -0.03801,-0.1071716 v -2.796094 c -1.87e-4,-0.028299 -0.01335,-0.055383 -0.03661,-0.075399 -0.02325,-0.020008 -0.05472,-0.031347 -0.08759,-0.031556 h -1.156055 c -0.03287,2.091e-4 -0.06434,0.011548 -0.0875,0.031556 -0.02325,0.020016 -0.03642,0.0471 -0.0367,0.075399 V 8.078135 c -9.3e-5,0.038174 -0.01326,0.075471 -0.03801,0.1071716 -0.02465,0.0317 -0.05967,0.056388 -0.100665,0.070936 -0.04099,0.014547 -0.0861,0.018303 -0.129519,0.010792 -0.04351,-0.00751 -0.08339,-0.025958 -0.114672,-0.052995 L 61.851841,6.2373931 c -0.02344,-0.020088 -0.05519,-0.031363 -0.08825,-0.031363 -0.03306,0 -0.06481,0.011274 -0.08825,0.031363 l -0.814282,0.7012351 c -0.02334,0.020193 -0.03642,0.04751 -0.03642,0.075994 0,0.028484 0.01307,0.055801 0.03642,0.075994 l 2.298104,1.9766464 c 0.03138,0.026948 0.05285,0.061302 0.06154,0.098728 0.0088,0.037426 0.0044,0.076243 -0.01251,0.1115301 -0.0169,0.035295 -0.04557,0.065475 -0.08236,0.086738 -0.03679,0.021262 -0.08012,0.032649 -0.124477,0.032714 h -3.246853 c -0.03287,2.091e-4 -0.06434,0.011548 -0.0875,0.031556 -0.02325,0.020016 -0.03642,0.0471 -0.0367,0.075399 v 0.9915403 c 2.8e-4,0.02831 0.01345,0.05541 0.0367,0.07543 0.02316,0.01994 0.05463,0.03128 0.0875,0.03152 h 3.246853 c 0.04436,8.1e-5 0.08769,0.01142 0.124477,0.03273 0.03679,0.02123 0.06546,0.05147 0.08236,0.08669 0.0169,0.0353 0.02129,0.07415 0.01251,0.111538 -0.0087,0.03747 -0.03016,0.07181 -0.06154,0.09875 l -2.295302,1.976647 c -0.02335,0.02018 -0.03642,0.04753 -0.03642,0.07599 0,0.02847 0.01307,0.05581 0.03642,0.07599 l 0.814281,0.701235 c 0.02344,0.0201 0.05519,0.03136 0.08825,0.03136 0.03306,0 0.06481,-0.01126 0.08825,-0.03136 l 2.295303,-1.976647 c 0.03128,-0.02702 0.07125,-0.04552 0.114671,-0.05299 0.04342,-0.0075 0.08852,-0.0038 0.12952,0.01078 0.04099,0.01456 0.07601,0.03924 0.100664,0.07093 0.02475,0.03177 0.03791,0.069 0.03801,0.107196 v 2.796094 c 0,0.0279 0.01251,0.05468 0.03502,0.07479 0.02241,0.0201 0.05313,0.03192 0.08544,0.03297 h 1.151386 c 0.03287,-2.41e-4 0.06434,-0.01158 0.08759,-0.03152 0.02325,-0.02002 0.03642,-0.04712 0.03661,-0.07543 v -2.796094 c 9.3e-5,-0.0382 0.01326,-0.07543 0.03801,-0.107196 0.02465,-0.03168 0.05976,-0.05637 0.100758,-0.07093 0.0409,-0.01456 0.086,-0.01825 0.129426,-0.01078 0.04351,0.0075 0.08339,0.02597 0.114671,0.05299 l 2.295303,1.976647 c 0.02344,0.0201 0.05519,0.03136 0.08825,0.03136 0.03306,0 0.06481,-0.01126 0.08825,-0.03136 l 0.814281,-0.701235 c 0.02335,-0.02018 0.03642,-0.04753 0.03642,-0.07599 0,-0.02847 -0.01307,-0.05581 -0.03642,-0.07599 l -2.290633,-1.976646 c -0.03138,-0.02694 -0.05276,-0.06128 -0.06154,-0.09875 -0.0087,-0.03739 -0.0043,-0.07624 0.01251,-0.111539 0.0169,-0.03522 0.04557,-0.06546 0.08245,-0.08669 0.03679,-0.02131 0.08003,-0.03265 0.124383,-0.03273 h 3.246854 c 0.03287,-2.41e-4 0.06434,-0.01158 0.08759,-0.03152 0.02325,-0.02002 0.03642,-0.04712 0.03661,-0.07543 V 9.5039259 c -1.87e-4,-0.028299 -0.01335,-0.055383 -0.03661,-0.075399 -0.02325,-0.020008 -0.05472,-0.031346 -0.08759,-0.031556 z"
     fill="#f6ff85"
     id="path22"
     style="stroke-width:0.866568" />
</svg>
