<svg width="148" height="20" viewBox="0 0 148 20" fill="none" xmlns="http://www.w3.org/2000/svg">
<path d="M13.886 0.207001L9.851 7.531C9.81641 7.59352 9.7657 7.64563 9.70415 7.68192C9.6426 7.71821 9.57245 7.73735 9.501 7.73735C9.42955 7.73735 9.3594 7.71821 9.29785 7.68192C9.2363 7.64563 9.18559 7.59352 9.151 7.531L5.114 0.207001C5.07949 0.144359 5.02882 0.0921146 4.96727 0.0557081C4.90571 0.0193016 4.83552 6.46072e-05 4.764 5.14288e-07H0.4C0.293913 5.14288e-07 0.192172 0.0421432 0.117157 0.117158C0.0421427 0.192172 0 0.293914 0 0.400001L0 19.6C0 19.7061 0.0421427 19.8078 0.117157 19.8828C0.192172 19.9579 0.293913 20 0.4 20H4.6C4.70609 20 4.80783 19.9579 4.88284 19.8828C4.95786 19.8078 5 19.7061 5 19.6V11.088C4.99983 10.9985 5.02966 10.9116 5.08471 10.8411C5.13977 10.7706 5.21688 10.7205 5.30371 10.699C5.39055 10.6775 5.48209 10.6857 5.56372 10.7223C5.64535 10.7589 5.71235 10.8218 5.754 10.901L9.146 17.329C9.17993 17.3935 9.23084 17.4475 9.29323 17.4852C9.35562 17.5229 9.42712 17.5428 9.5 17.5428C9.57288 17.5428 9.64438 17.5229 9.70677 17.4852C9.76916 17.4475 9.82007 17.3935 9.854 17.329L13.246 10.9C13.2877 10.8208 13.3546 10.7579 13.4363 10.7213C13.5179 10.6847 13.6095 10.6765 13.6963 10.698C13.7831 10.7195 13.8602 10.7696 13.9153 10.8401C13.9703 10.9106 14.0002 10.9975 14 11.087V19.6C14 19.7061 14.0421 19.8078 14.1172 19.8828C14.1922 19.9579 14.2939 20 14.4 20H18.6C18.7061 20 18.8078 19.9579 18.8828 19.8828C18.9579 19.8078 19 19.7061 19 19.6V0.400001C19 0.293914 18.9579 0.192172 18.8828 0.117158C18.8078 0.0421432 18.7061 5.14288e-07 18.6 5.14288e-07H14.237C14.1653 -0.000114423 14.0949 0.0190379 14.0332 0.0554536C13.9714 0.0918694 13.9206 0.14421 13.886 0.207001Z" fill="#F6FF85"/>
<path d="M33 0.4V9.7C33 9.78667 32.9719 9.871 32.9198 9.94031C32.8678 10.0096 32.7946 10.0601 32.7114 10.0843C32.6282 10.1084 32.5393 10.1049 32.4583 10.0741C32.3772 10.0434 32.3083 9.98724 32.262 9.914L26.118 0.187C26.0819 0.129684 26.0319 0.0824607 25.9726 0.0497539C25.9133 0.017047 25.8467 -7.22013e-05 25.779 2.28882e-07H21.4C21.2939 2.28882e-07 21.1922 0.042143 21.1172 0.117158C21.0421 0.192172 21 0.293914 21 0.4V19.6C21 19.7061 21.0421 19.8078 21.1172 19.8828C21.1922 19.9579 21.2939 20 21.4 20H25.6C25.7061 20 25.8078 19.9579 25.8828 19.8828C25.9579 19.8078 26 19.7061 26 19.6V10.3C26 10.2133 26.0281 10.129 26.0802 10.0597C26.1322 9.99039 26.2054 9.93987 26.2886 9.91573C26.3718 9.89159 26.4607 9.89515 26.5417 9.92585C26.6228 9.95656 26.6917 10.0128 26.738 10.086L32.882 19.814C32.9181 19.8713 32.9681 19.9185 33.0274 19.9512C33.0867 19.984 33.1533 20.0011 33.221 20.001H37.6C37.7061 20.001 37.8078 19.9589 37.8828 19.8838C37.9579 19.8088 38 19.7071 38 19.601V0.4C38 0.293914 37.9579 0.192172 37.8828 0.117158C37.8078 0.042143 37.7061 2.28882e-07 37.6 2.28882e-07H33.4C33.2939 2.28882e-07 33.1922 0.042143 33.1172 0.117158C33.0421 0.192172 33 0.293914 33 0.4Z" fill="#F6FF85"/>
<path d="M44.6 20H40.4C40.2939 20 40.1922 19.9579 40.1172 19.8828C40.0421 19.8078 40 19.7061 40 19.6V0.4C40 0.293913 40.0421 0.192172 40.1172 0.117157C40.1922 0.0421427 40.2939 0 40.4 0L44.6 0C44.7061 0 44.8078 0.0421427 44.8828 0.117157C44.9579 0.192172 45 0.293913 45 0.4V19.6C45 19.7061 44.9579 19.8078 44.8828 19.8828C44.8078 19.9579 44.7061 20 44.6 20Z" fill="#F6FF85"/>
<path d="M56.328 3.74803e-07H51.738C51.6659 -9.81814e-05 51.5952 0.0192699 51.5332 0.0560581C51.4713 0.0928463 51.4204 0.145688 51.386 0.209L45.319 11.409C45.2859 11.47 45.2692 11.5385 45.2705 11.6079C45.2719 11.6772 45.2913 11.7451 45.3268 11.8047C45.3623 11.8643 45.4127 11.9137 45.473 11.9479C45.5334 11.9821 45.6016 12.0001 45.671 12H46.928C47.0001 11.9999 47.0708 12.0193 47.1328 12.0561C47.1947 12.0928 47.2456 12.1457 47.28 12.209L51.386 19.79C51.4204 19.8533 51.4713 19.9062 51.5332 19.9429C51.5952 19.9797 51.6659 19.9991 51.738 19.999H56.328C56.3974 19.9991 56.4656 19.9811 56.5259 19.9469C56.5863 19.9127 56.6367 19.8633 56.6722 19.8037C56.7077 19.7441 56.7271 19.6762 56.7285 19.6069C56.7298 19.5375 56.7131 19.469 56.68 19.408L51.686 10.189C51.6543 10.1305 51.6377 10.065 51.6377 9.9985C51.6377 9.93197 51.6543 9.8665 51.686 9.808L56.68 0.591C56.7131 0.530035 56.7298 0.4615 56.7285 0.392126C56.7271 0.322753 56.7077 0.254928 56.6722 0.195314C56.6367 0.1357 56.5863 0.0863479 56.5259 0.0521047C56.4656 0.0178615 56.3974 -9.45989e-05 56.328 3.74803e-07Z" fill="#F6FF85"/>
<path d="M77.12 15.3801C76.285 15.1542 75.4942 14.7888 74.781 14.2991C74.2029 13.9077 73.7125 13.4003 73.341 12.8091C73.325 12.7819 73.3189 12.75 73.3238 12.7188C73.3287 12.6876 73.3444 12.659 73.368 12.6381L74.405 11.7151C74.4202 11.7016 74.4383 11.6917 74.4579 11.6863C74.4775 11.6808 74.4981 11.68 74.5181 11.6837C74.5381 11.6875 74.557 11.6958 74.5733 11.708C74.5895 11.7202 74.6028 11.736 74.612 11.7541C74.8847 12.2275 75.2607 12.6332 75.712 12.9411C76.3112 13.3591 76.9751 13.6757 77.677 13.8781C78.4405 14.1078 79.2338 14.2234 80.031 14.2211C80.6301 14.2302 81.2275 14.1559 81.806 14.0001C82.2507 13.8882 82.6622 13.6715 83.006 13.3681C83.1362 13.2593 83.2421 13.1245 83.3169 12.9722C83.3916 12.8199 83.4336 12.6536 83.44 12.4841C83.4299 12.2645 83.3571 12.0524 83.2302 11.8729C83.1033 11.6934 82.9277 11.554 82.724 11.4711C81.9964 11.1436 81.2189 10.9407 80.424 10.8711L77.865 10.5051C76.8057 10.3934 75.7827 10.0558 74.865 9.51512C74.5576 9.29524 74.3111 9.00086 74.1486 8.6596C73.9861 8.31834 73.9129 7.94138 73.936 7.56412C73.9254 6.91243 74.1624 6.28098 74.599 5.79712C75.0989 5.26246 75.7287 4.86628 76.427 4.64712C77.2749 4.36805 78.1635 4.23285 79.056 4.24712C79.8321 4.24265 80.6054 4.34015 81.356 4.53712C82.0251 4.70924 82.6653 4.97879 83.256 5.33712C83.7298 5.61982 84.1428 5.9937 84.471 6.43712C84.4891 6.46318 84.4975 6.49473 84.4947 6.52632C84.492 6.55791 84.4783 6.58755 84.456 6.61012L83.537 7.54312C83.5233 7.55621 83.5069 7.56624 83.489 7.57254C83.4711 7.57884 83.4521 7.58127 83.4332 7.57966C83.4143 7.57806 83.3959 7.57245 83.3794 7.56322C83.3628 7.55399 83.3484 7.54134 83.337 7.52612C83.0776 7.18182 82.7573 6.88797 82.392 6.65912C81.9222 6.35968 81.4083 6.13595 80.869 5.99612C80.2773 5.84115 79.6677 5.76449 79.056 5.76812C78.5153 5.76256 77.9765 5.83428 77.456 5.98112C77.0295 6.0906 76.6335 6.29579 76.298 6.58112C76.1702 6.68313 76.0659 6.81151 75.9922 6.95751C75.9185 7.10351 75.8772 7.26369 75.871 7.42712C75.8742 7.61694 75.93 7.80216 76.0322 7.96213C76.1344 8.1221 76.2791 8.25054 76.45 8.33312C77.0226 8.62013 77.6415 8.80331 78.278 8.87412L80.778 9.22412C82.0141 9.31683 83.2151 9.67825 84.297 10.2831C84.6406 10.4945 84.9228 10.792 85.1158 11.1462C85.3088 11.5004 85.4057 11.8989 85.397 12.3021C85.408 12.9742 85.1627 13.6253 84.711 14.1231C84.1815 14.6808 83.5182 15.0939 82.784 15.3231C81.8681 15.6263 80.9077 15.773 79.943 15.7571C78.9902 15.7616 78.0415 15.6333 77.124 15.3761" fill="#F6FF85"/>
<path d="M90.85 6.17594H86.199C86.1812 6.17607 86.1636 6.17267 86.1472 6.16593C86.1307 6.1592 86.1158 6.14926 86.1032 6.13669C86.0907 6.12413 86.0807 6.1092 86.074 6.09276C86.0672 6.07632 86.0638 6.0587 86.064 6.04094V4.74094C86.064 4.72326 86.0675 4.70575 86.0743 4.68943C86.0811 4.6731 86.091 4.65829 86.1036 4.64583C86.1161 4.63337 86.131 4.62352 86.1474 4.61685C86.1638 4.61017 86.1813 4.60681 86.199 4.60694H97.722C97.7397 4.60681 97.7572 4.61017 97.7736 4.61685C97.7899 4.62352 97.8048 4.63337 97.8174 4.64583C97.8299 4.65829 97.8399 4.6731 97.8467 4.68943C97.8535 4.70575 97.857 4.72326 97.857 4.74094V6.04094C97.8571 6.0587 97.8537 6.07632 97.847 6.09276C97.8402 6.1092 97.8303 6.12413 97.8177 6.13669C97.8052 6.14926 97.7902 6.1592 97.7738 6.16593C97.7574 6.17267 97.7397 6.17607 97.722 6.17594H93.068C93.0503 6.17581 93.0328 6.17917 93.0164 6.18585C93 6.19252 92.9851 6.20237 92.9726 6.21483C92.96 6.22729 92.9501 6.2421 92.9433 6.25843C92.9365 6.27475 92.933 6.29226 92.933 6.30994V15.2589C92.933 15.2945 92.9189 15.3286 92.8937 15.3537C92.8686 15.3788 92.8345 15.3929 92.799 15.3929H91.118C91.0823 15.3929 91.0482 15.3789 91.0229 15.3538C90.9976 15.3286 90.9832 15.2946 90.983 15.2589V6.30994C90.9827 6.27431 90.9684 6.24023 90.9431 6.21512C90.9178 6.19002 90.8836 6.17594 90.848 6.17594" fill="#F6FF85"/>
<path d="M102.248 15.1199C101.361 14.7352 100.609 14.0963 100.085 13.2839C99.5481 12.4077 99.2781 11.3941 99.308 10.3669V4.74194C99.3079 4.72417 99.3113 4.70656 99.318 4.69012C99.3248 4.67368 99.3347 4.65874 99.3473 4.64618C99.3598 4.63362 99.3748 4.62368 99.3912 4.61694C99.4076 4.61021 99.4253 4.6068 99.443 4.60694H101.148C101.166 4.6068 101.183 4.61021 101.2 4.61694C101.216 4.62368 101.231 4.63362 101.244 4.64618C101.256 4.65874 101.266 4.67368 101.273 4.69012C101.28 4.70656 101.283 4.72417 101.283 4.74194V10.3509C101.261 11.0784 101.441 11.7977 101.801 12.4299C102.144 13.0015 102.659 13.4497 103.272 13.7099C103.974 14.0024 104.729 14.1451 105.489 14.1289C106.242 14.1446 106.989 14.0018 107.683 13.7099C108.294 13.4465 108.808 12.9991 109.153 12.4299C109.518 11.7993 109.7 11.0793 109.678 10.3509V4.74194C109.678 4.70613 109.692 4.6718 109.718 4.64648C109.743 4.62116 109.777 4.60694 109.813 4.60694H111.494C111.53 4.60694 111.564 4.62116 111.589 4.64648C111.615 4.6718 111.629 4.70613 111.629 4.74194V10.3669C111.659 11.3941 111.389 12.4077 110.852 13.2839C110.328 14.0962 109.576 14.7351 108.689 15.1199C106.621 15.9529 104.312 15.9529 102.244 15.1199" fill="#F6FF85"/>
<path d="M113.762 4.74198C113.762 4.70635 113.776 4.67216 113.801 4.64687C113.826 4.62158 113.86 4.60724 113.896 4.60698H120.527C122.199 4.4963 123.855 4.9935 125.189 6.00698C125.742 6.50745 126.176 7.12584 126.458 7.81646C126.74 8.50709 126.864 9.25228 126.819 9.99698C126.853 11.0227 126.602 12.0378 126.095 12.93C125.59 13.7481 124.841 14.3876 123.954 14.759C122.863 15.2084 121.69 15.4237 120.511 15.391H113.895C113.859 15.3907 113.825 15.3764 113.8 15.3511C113.775 15.3258 113.761 15.2916 113.761 15.256L113.762 4.74198ZM120.405 13.855C121.241 13.8781 122.072 13.7223 122.843 13.398C123.477 13.1244 124.014 12.6653 124.382 12.081C124.752 11.4522 124.932 10.7298 124.901 10.001C124.933 9.47016 124.844 8.93904 124.642 8.44716C124.44 7.95528 124.13 7.5153 123.734 7.15998C122.781 6.4369 121.599 6.08185 120.405 6.15998H115.832C115.814 6.15998 115.797 6.16348 115.78 6.17027C115.764 6.17707 115.749 6.18703 115.737 6.19958C115.724 6.21213 115.715 6.22702 115.708 6.24339C115.701 6.25977 115.698 6.2773 115.698 6.29498V13.72C115.698 13.7377 115.701 13.7552 115.708 13.7716C115.715 13.7879 115.724 13.8028 115.737 13.8154C115.749 13.8279 115.764 13.8379 115.78 13.8447C115.797 13.8515 115.814 13.855 115.832 13.855H120.405Z" fill="#F6FF85"/>
<path d="M129.072 4.60694H130.772C130.79 4.6068 130.807 4.61021 130.824 4.61694C130.84 4.62368 130.855 4.63362 130.868 4.64618C130.88 4.65874 130.89 4.67368 130.897 4.69012C130.904 4.70656 130.907 4.72417 130.907 4.74194V15.2599C130.907 15.2776 130.904 15.2951 130.897 15.3114C130.89 15.3278 130.88 15.3426 130.867 15.355C130.855 15.3675 130.84 15.3774 130.824 15.384C130.807 15.3907 130.79 15.3941 130.772 15.3939H129.072C129.036 15.3939 129.002 15.3799 128.977 15.3548C128.952 15.3296 128.937 15.2956 128.937 15.2599V4.74194C128.937 4.70613 128.951 4.6718 128.977 4.64648C129.002 4.62116 129.036 4.60694 129.072 4.60694Z" fill="#F6FF85"/>
<path d="M136.584 15.0509C135.532 14.6273 134.617 13.9209 133.941 13.0099C133.307 12.1361 132.972 11.0805 132.988 10.0009C132.977 8.92906 133.311 7.88208 133.941 7.0149C134.618 6.09784 135.536 5.38592 136.592 4.9579C139.08 3.98278 141.844 3.98278 144.332 4.9579C145.388 5.3861 146.306 6.09798 146.983 7.0149C147.614 7.88684 147.948 8.93858 147.936 10.0149C147.949 11.0906 147.612 12.1415 146.976 13.0089C146.296 13.9189 145.379 14.6249 144.325 15.0499C141.835 16.0153 139.075 16.0153 136.585 15.0499M143.32 13.6559C144.094 13.3455 144.768 12.8292 145.27 12.1629C145.726 11.5336 145.971 10.7764 145.971 9.9994C145.971 9.22237 145.726 8.46519 145.27 7.8359C144.767 7.16888 144.094 6.65051 143.32 6.3359C142.413 5.96117 141.438 5.77702 140.456 5.7949C139.482 5.77733 138.514 5.96152 137.614 6.3359C136.843 6.65182 136.172 7.17006 135.671 7.8359C135.216 8.46537 134.97 9.22248 134.97 9.9994C134.97 10.7763 135.216 11.5334 135.671 12.1629C136.171 12.828 136.843 13.3442 137.614 13.6559C138.515 14.0257 139.482 14.207 140.456 14.1889C141.437 14.2073 142.411 14.026 143.32 13.6559Z" fill="#F6FF85"/>
<path d="M70.481 9.25H67.004C66.9565 9.24992 66.9102 9.23576 66.8708 9.20932C66.8313 9.18288 66.8006 9.14535 66.7825 9.10146C66.7645 9.05758 66.7598 9.00931 66.7691 8.96277C66.7785 8.91623 66.8014 8.87351 66.835 8.84L69.293 6.382C69.318 6.35689 69.332 6.32292 69.332 6.2875C69.332 6.25208 69.318 6.21811 69.293 6.193L68.421 5.321C68.3959 5.29602 68.3619 5.282 68.3265 5.282C68.2911 5.282 68.2571 5.29602 68.232 5.321L65.774 7.779C65.7405 7.81262 65.6978 7.83556 65.6512 7.8449C65.6047 7.85424 65.5564 7.84957 65.5126 7.83148C65.4687 7.81339 65.4311 7.78269 65.4047 7.74327C65.3783 7.70385 65.3641 7.65747 65.364 7.61V4.133C65.3638 4.09781 65.3497 4.06413 65.3248 4.03924C65.2999 4.01436 65.2662 4.00026 65.231 4H63.993C63.9578 4.00026 63.9241 4.01436 63.8993 4.03924C63.8744 4.06413 63.8603 4.09781 63.86 4.133V7.61C63.8599 7.65747 63.8458 7.70385 63.8193 7.74327C63.7929 7.78269 63.7554 7.81339 63.7115 7.83148C63.6676 7.84957 63.6193 7.85424 63.5728 7.8449C63.5262 7.83556 63.4835 7.81262 63.45 7.779L60.993 5.321C60.9679 5.29602 60.9339 5.282 60.8985 5.282C60.8631 5.282 60.8291 5.29602 60.804 5.321L59.932 6.193C59.907 6.21811 59.893 6.25208 59.893 6.2875C59.893 6.32292 59.907 6.35689 59.932 6.382L62.393 8.84C62.4266 8.87351 62.4496 8.91623 62.4589 8.96277C62.4683 9.00931 62.4636 9.05758 62.4455 9.10146C62.4274 9.14535 62.3967 9.18288 62.3573 9.20932C62.3179 9.23576 62.2715 9.24992 62.224 9.25H58.747C58.7118 9.25026 58.6781 9.26436 58.6533 9.28924C58.6284 9.31413 58.6143 9.34781 58.614 9.383V10.616C58.6143 10.6512 58.6284 10.6849 58.6533 10.7098C58.6781 10.7346 58.7118 10.7487 58.747 10.749H62.224C62.2715 10.7491 62.3179 10.7632 62.3573 10.7897C62.3967 10.8161 62.4274 10.8537 62.4455 10.8975C62.4636 10.9414 62.4683 10.9897 62.4589 11.0362C62.4496 11.0828 62.4266 11.1255 62.393 11.159L59.935 13.617C59.91 13.6421 59.896 13.6761 59.896 13.7115C59.896 13.7469 59.91 13.7809 59.935 13.806L60.807 14.678C60.8321 14.703 60.8661 14.717 60.9015 14.717C60.9369 14.717 60.9709 14.703 60.996 14.678L63.454 12.22C63.4875 12.1864 63.5303 12.1634 63.5768 12.1541C63.6233 12.1448 63.6716 12.1494 63.7155 12.1675C63.7594 12.1856 63.7969 12.2163 63.8233 12.2557C63.8498 12.2952 63.8639 12.3415 63.864 12.389V15.866C63.864 15.9007 63.8774 15.934 63.9015 15.959C63.9255 15.984 63.9584 15.9987 63.993 16H65.226C65.2612 15.9997 65.2949 15.9856 65.3198 15.9608C65.3447 15.9359 65.3588 15.9022 65.359 15.867V12.39C65.3591 12.3425 65.3732 12.2962 65.3997 12.2567C65.4261 12.2173 65.4637 12.1866 65.5076 12.1685C65.5514 12.1504 65.5997 12.1458 65.6462 12.1551C65.6928 12.1644 65.7355 12.1874 65.769 12.221L68.227 14.679C68.2521 14.704 68.2861 14.718 68.3215 14.718C68.3569 14.718 68.3909 14.704 68.416 14.679L69.288 13.807C69.313 13.7819 69.327 13.7479 69.327 13.7125C69.327 13.6771 69.313 13.6431 69.288 13.618L66.835 11.16C66.8014 11.1265 66.7785 11.0838 66.7691 11.0372C66.7598 10.9907 66.7645 10.9424 66.7825 10.8985C66.8006 10.8547 66.8313 10.8171 66.8708 10.7907C66.9102 10.7642 66.9565 10.7501 67.004 10.75H70.481C70.5162 10.7497 70.5499 10.7356 70.5748 10.7108C70.5997 10.6859 70.6138 10.6522 70.614 10.617V9.383C70.6138 9.34781 70.5997 9.31413 70.5748 9.28924C70.5499 9.26436 70.5162 9.25026 70.481 9.25Z" fill="#F6FF85"/>
</svg>
