<svg width="148" height="20" viewBox="0 0 148 20" fill="none" xmlns="http://www.w3.org/2000/svg">
<path d="M13.886 0.207L9.851 7.531C9.81641 7.59352 9.7657 7.64563 9.70415 7.68192C9.6426 7.71821 9.57245 7.73735 9.501 7.73735C9.42955 7.73735 9.3594 7.71821 9.29785 7.68192C9.2363 7.64563 9.18559 7.59352 9.151 7.531L5.114 0.207C5.07949 0.144359 5.02882 0.0921141 4.96727 0.0557076C4.90571 0.0193011 4.83552 6.41304e-05 4.764 3.74506e-08H0.4C0.293913 3.74506e-08 0.192172 0.0421428 0.117157 0.117157C0.0421427 0.192172 0 0.293913 0 0.4L0 19.6C0 19.7061 0.0421427 19.8078 0.117157 19.8828C0.192172 19.9579 0.293913 20 0.4 20H4.6C4.70609 20 4.80783 19.9579 4.88284 19.8828C4.95786 19.8078 5 19.7061 5 19.6V11.088C4.99983 10.9985 5.02966 10.9116 5.08471 10.8411C5.13977 10.7706 5.21688 10.7205 5.30371 10.699C5.39055 10.6775 5.48209 10.6857 5.56372 10.7223C5.64535 10.7589 5.71235 10.8218 5.754 10.901L9.146 17.329C9.17993 17.3935 9.23084 17.4475 9.29323 17.4852C9.35562 17.5229 9.42712 17.5428 9.5 17.5428C9.57288 17.5428 9.64438 17.5229 9.70677 17.4852C9.76916 17.4475 9.82007 17.3935 9.854 17.329L13.246 10.9C13.2877 10.8208 13.3546 10.7579 13.4363 10.7213C13.5179 10.6847 13.6095 10.6765 13.6963 10.698C13.7831 10.7195 13.8602 10.7696 13.9153 10.8401C13.9703 10.9106 14.0002 10.9975 14 11.087V19.6C14 19.7061 14.0421 19.8078 14.1172 19.8828C14.1922 19.9579 14.2939 20 14.4 20H18.6C18.7061 20 18.8078 19.9579 18.8828 19.8828C18.9579 19.8078 19 19.7061 19 19.6V0.4C19 0.293913 18.9579 0.192172 18.8828 0.117157C18.8078 0.0421428 18.7061 3.74506e-08 18.6 3.74506e-08H14.237C14.1653 -0.000114899 14.0949 0.0190374 14.0332 0.0554532C13.9714 0.0918689 13.9206 0.14421 13.886 0.207Z" fill="#252422"/>
<path d="M33 0.4V9.7C33 9.78667 32.9719 9.871 32.9198 9.94031C32.8678 10.0096 32.7946 10.0601 32.7114 10.0843C32.6282 10.1084 32.5393 10.1049 32.4583 10.0741C32.3772 10.0434 32.3083 9.98724 32.262 9.914L26.118 0.187C26.0819 0.129684 26.0319 0.0824607 25.9726 0.0497539C25.9133 0.017047 25.8467 -7.22013e-05 25.779 2.28882e-07H21.4C21.2939 2.28882e-07 21.1922 0.042143 21.1172 0.117158C21.0421 0.192172 21 0.293914 21 0.4V19.6C21 19.7061 21.0421 19.8078 21.1172 19.8828C21.1922 19.9579 21.2939 20 21.4 20H25.6C25.7061 20 25.8078 19.9579 25.8828 19.8828C25.9579 19.8078 26 19.7061 26 19.6V10.3C26 10.2133 26.0281 10.129 26.0802 10.0597C26.1322 9.99039 26.2054 9.93987 26.2886 9.91573C26.3718 9.89159 26.4607 9.89515 26.5417 9.92585C26.6228 9.95656 26.6917 10.0128 26.738 10.086L32.882 19.814C32.9181 19.8713 32.9681 19.9185 33.0274 19.9512C33.0867 19.984 33.1533 20.0011 33.221 20.001H37.6C37.7061 20.001 37.8078 19.9589 37.8828 19.8838C37.9579 19.8088 38 19.7071 38 19.601V0.4C38 0.293914 37.9579 0.192172 37.8828 0.117158C37.8078 0.042143 37.7061 2.28882e-07 37.6 2.28882e-07H33.4C33.2939 2.28882e-07 33.1922 0.042143 33.1172 0.117158C33.0421 0.192172 33 0.293914 33 0.4Z" fill="#252422"/>
<path d="M44.6 20H40.4C40.2939 20 40.1922 19.9579 40.1172 19.8828C40.0421 19.8078 40 19.7061 40 19.6V0.4C40 0.293913 40.0421 0.192172 40.1172 0.117157C40.1922 0.0421427 40.2939 0 40.4 0L44.6 0C44.7061 0 44.8078 0.0421427 44.8828 0.117157C44.9579 0.192172 45 0.293913 45 0.4V19.6C45 19.7061 44.9579 19.8078 44.8828 19.8828C44.8078 19.9579 44.7061 20 44.6 20Z" fill="#252422"/>
<path d="M56.328 -1.02034e-07H51.738C51.6659 -9.86583e-05 51.5952 0.0192694 51.5332 0.0560576C51.4713 0.0928458 51.4204 0.145688 51.386 0.209L45.319 11.409C45.2859 11.47 45.2692 11.5385 45.2705 11.6079C45.2719 11.6772 45.2913 11.7451 45.3268 11.8047C45.3623 11.8643 45.4127 11.9137 45.473 11.9479C45.5334 11.9821 45.6016 12.0001 45.671 12H46.928C47.0001 11.9999 47.0708 12.0193 47.1328 12.0561C47.1947 12.0928 47.2456 12.1457 47.28 12.209L51.386 19.79C51.4204 19.8533 51.4713 19.9062 51.5332 19.9429C51.5952 19.9797 51.6659 19.9991 51.738 19.999H56.328C56.3974 19.9991 56.4656 19.9811 56.5259 19.9469C56.5863 19.9127 56.6367 19.8633 56.6722 19.8037C56.7077 19.7441 56.7271 19.6762 56.7285 19.6069C56.7298 19.5375 56.7131 19.469 56.68 19.408L51.686 10.189C51.6543 10.1305 51.6377 10.065 51.6377 9.9985C51.6377 9.93197 51.6543 9.8665 51.686 9.808L56.68 0.591C56.7131 0.530035 56.7298 0.461499 56.7285 0.392126C56.7271 0.322753 56.7077 0.254928 56.6722 0.195314C56.6367 0.1357 56.5863 0.0863474 56.5259 0.0521042C56.4656 0.017861 56.3974 -9.50757e-05 56.328 -1.02034e-07Z" fill="#252422"/>
<path d="M77.12 15.38C76.285 15.1541 75.4941 14.7886 74.781 14.299C74.2029 13.9076 73.7125 13.4002 73.341 12.809C73.3249 12.7818 73.3189 12.7499 73.3238 12.7186C73.3287 12.6874 73.3443 12.6589 73.368 12.638L74.405 11.715C74.4202 11.7015 74.4383 11.6916 74.4579 11.6862C74.4775 11.6807 74.4981 11.6798 74.5181 11.6836C74.5381 11.6874 74.5569 11.6957 74.5732 11.7079C74.5895 11.7201 74.6028 11.7359 74.612 11.754C74.8847 12.2274 75.2607 12.6331 75.712 12.941C76.3112 13.359 76.975 13.6756 77.677 13.878C78.4405 14.1077 79.2337 14.2233 80.031 14.221C80.6301 14.2301 81.2275 14.1557 81.806 14C82.2507 13.888 82.6621 13.6714 83.006 13.368C83.1362 13.2592 83.2421 13.1243 83.3168 12.9721C83.3916 12.8198 83.4335 12.6535 83.44 12.484C83.4298 12.2644 83.357 12.0523 83.2301 11.8728C83.1033 11.6933 82.9276 11.5538 82.724 11.471C81.9964 11.1434 81.2189 10.9406 80.424 10.871L77.865 10.505C76.8057 10.3933 75.7827 10.0557 74.865 9.515C74.5576 9.29512 74.311 9.00074 74.1485 8.65948C73.986 8.31822 73.9129 7.94127 73.936 7.564C73.9254 6.91232 74.1623 6.28087 74.599 5.797C75.0989 5.26234 75.7286 4.86617 76.427 4.647C77.2749 4.36793 78.1635 4.23273 79.056 4.247C79.8321 4.24253 80.6053 4.34003 81.356 4.537C82.0251 4.70913 82.6653 4.97867 83.256 5.337C83.7298 5.6197 84.1427 5.99359 84.471 6.437C84.4891 6.46306 84.4974 6.49462 84.4947 6.52621C84.492 6.55779 84.4783 6.58743 84.456 6.61L83.537 7.543C83.5233 7.5561 83.5069 7.56613 83.489 7.57243C83.4711 7.57873 83.4521 7.58115 83.4332 7.57955C83.4143 7.57794 83.3959 7.57234 83.3793 7.5631C83.3627 7.55387 83.3483 7.54123 83.337 7.526C83.0776 7.18171 82.7573 6.88786 82.392 6.659C81.9222 6.35956 81.4083 6.13583 80.869 5.996C80.2772 5.84103 79.6677 5.76438 79.056 5.768C78.5152 5.76244 77.9765 5.83417 77.456 5.981C77.0294 6.09048 76.6334 6.29567 76.298 6.581C76.1702 6.68301 76.0658 6.81139 75.9922 6.95739C75.9185 7.10339 75.8771 7.26357 75.871 7.427C75.8741 7.61682 75.9299 7.80204 76.0322 7.96201C76.1344 8.12198 76.2791 8.25042 76.45 8.333C77.0225 8.62002 77.6415 8.80319 78.278 8.874L80.778 9.224C82.0141 9.31672 83.215 9.67813 84.297 10.283C84.6405 10.4943 84.9228 10.7919 85.1158 11.1461C85.3087 11.5003 85.4057 11.8988 85.397 12.302C85.4079 12.9741 85.1627 13.6252 84.711 14.123C84.1815 14.6807 83.5181 15.0938 82.784 15.323C81.8681 15.6262 80.9076 15.7729 79.943 15.757C78.9902 15.7615 78.0414 15.6332 77.124 15.376" fill="#252422"/>
<path d="M90.85 6.176H86.199C86.1812 6.17613 86.1636 6.17273 86.1472 6.166C86.1308 6.15926 86.1158 6.14932 86.1032 6.13676C86.0907 6.12419 86.0807 6.10926 86.074 6.09282C86.0673 6.07638 86.0639 6.05877 86.064 6.041V4.741C86.064 4.72332 86.0675 4.70581 86.0743 4.68949C86.0811 4.67317 86.0911 4.65835 86.1036 4.64589C86.1162 4.63344 86.131 4.62359 86.1474 4.61691C86.1638 4.61024 86.1813 4.60687 86.199 4.607H97.722C97.7397 4.60687 97.7572 4.61024 97.7736 4.61691C97.79 4.62359 97.8049 4.63344 97.8174 4.64589C97.83 4.65835 97.8399 4.67317 97.8467 4.68949C97.8535 4.70581 97.857 4.72332 97.857 4.741V6.041C97.8571 6.05877 97.8537 6.07638 97.847 6.09282C97.8403 6.10926 97.8303 6.12419 97.8178 6.13676C97.8052 6.14932 97.7903 6.15926 97.7738 6.166C97.7574 6.17273 97.7398 6.17613 97.722 6.176H93.068C93.0503 6.17587 93.0328 6.17924 93.0164 6.18591C93 6.19259 92.9852 6.20244 92.9726 6.21489C92.9601 6.22735 92.9501 6.24217 92.9433 6.25849C92.9365 6.27481 92.933 6.29232 92.933 6.31V15.259C92.933 15.2945 92.9189 15.3286 92.8938 15.3538C92.8686 15.3789 92.8345 15.393 92.799 15.393H91.118C91.0824 15.393 91.0482 15.3789 91.0229 15.3538C90.9976 15.3287 90.9833 15.2946 90.983 15.259V6.31C90.9827 6.27437 90.9684 6.24029 90.9431 6.21519C90.9178 6.19009 90.8836 6.176 90.848 6.176" fill="#252422"/>
<path d="M102.248 15.12C101.361 14.7353 100.609 14.0964 100.085 13.284C99.5481 12.4078 99.2781 11.3942 99.308 10.367V4.742C99.3079 4.72423 99.3112 4.70662 99.318 4.69018C99.3247 4.67374 99.3347 4.65881 99.3472 4.64624C99.3598 4.63368 99.3747 4.62374 99.3912 4.61701C99.4076 4.61027 99.4252 4.60687 99.443 4.607H101.148C101.166 4.60687 101.183 4.61027 101.2 4.61701C101.216 4.62374 101.231 4.63368 101.244 4.64624C101.256 4.65881 101.266 4.67374 101.273 4.69018C101.28 4.70662 101.283 4.72423 101.283 4.742V10.351C101.261 11.0784 101.441 11.7978 101.801 12.43C102.143 13.0016 102.659 13.4498 103.272 13.71C103.974 14.0025 104.729 14.1452 105.489 14.129C106.242 14.1447 106.989 14.0019 107.683 13.71C108.294 13.4466 108.808 12.9992 109.153 12.43C109.518 11.7993 109.7 11.0793 109.678 10.351V4.742C109.678 4.7062 109.692 4.67186 109.718 4.64654C109.743 4.62122 109.777 4.607 109.813 4.607H111.494C111.53 4.607 111.564 4.62122 111.589 4.64654C111.615 4.67186 111.629 4.7062 111.629 4.742V10.367C111.659 11.3942 111.389 12.4078 110.852 13.284C110.328 14.0963 109.576 14.7352 108.689 15.12C106.621 15.9529 104.312 15.9529 102.244 15.12" fill="#252422"/>
<path d="M113.762 4.742C113.762 4.70637 113.776 4.67218 113.801 4.64689C113.826 4.6216 113.86 4.60726 113.896 4.607H120.527C122.199 4.49632 123.855 4.99352 125.189 6.007C125.742 6.50747 126.176 7.12586 126.458 7.81648C126.74 8.50711 126.864 9.2523 126.819 9.997C126.853 11.0227 126.602 12.0378 126.095 12.93C125.59 13.7481 124.841 14.3877 123.954 14.759C122.863 15.2085 121.69 15.4238 120.511 15.391H113.895C113.859 15.3907 113.825 15.3764 113.8 15.3511C113.775 15.3258 113.761 15.2916 113.761 15.256L113.762 4.742ZM120.405 13.855C121.241 13.8781 122.072 13.7223 122.843 13.398C123.477 13.1244 124.014 12.6653 124.382 12.081C124.752 11.4522 124.932 10.7299 124.901 10.001C124.933 9.47018 124.844 8.93906 124.642 8.44718C124.44 7.9553 124.13 7.51532 123.734 7.16C122.781 6.43692 121.599 6.08187 120.405 6.16H115.832C115.814 6.16 115.797 6.1635 115.78 6.1703C115.764 6.17709 115.749 6.18705 115.737 6.1996C115.724 6.21215 115.715 6.22704 115.708 6.24341C115.701 6.25979 115.698 6.27732 115.698 6.295V13.72C115.698 13.7377 115.701 13.7552 115.708 13.7716C115.715 13.788 115.724 13.8028 115.737 13.8154C115.749 13.8279 115.764 13.8379 115.78 13.8447C115.797 13.8515 115.814 13.855 115.832 13.855H120.405Z" fill="#252422"/>
<path d="M129.072 4.607H130.772C130.79 4.60687 130.807 4.61027 130.824 4.61701C130.84 4.62374 130.855 4.63368 130.868 4.64624C130.88 4.65881 130.89 4.67374 130.897 4.69018C130.904 4.70662 130.907 4.72423 130.907 4.742V15.26C130.907 15.2777 130.904 15.2952 130.897 15.3115C130.89 15.3278 130.88 15.3427 130.867 15.3551C130.855 15.3676 130.84 15.3774 130.824 15.3841C130.807 15.3908 130.79 15.3941 130.772 15.394H129.072C129.036 15.394 129.002 15.3799 128.977 15.3548C128.952 15.3297 128.937 15.2956 128.937 15.26V4.742C128.937 4.7062 128.951 4.67186 128.977 4.64654C129.002 4.62122 129.036 4.607 129.072 4.607Z" fill="#252422"/>
<path d="M136.584 15.051C135.532 14.6274 134.617 13.921 133.941 13.01C133.307 12.1362 132.972 11.0806 132.988 10.001C132.977 8.92915 133.311 7.88217 133.941 7.015C134.618 6.09793 135.536 5.38601 136.592 4.958C139.08 3.98288 141.844 3.98288 144.332 4.958C145.388 5.3862 146.306 6.09808 146.983 7.015C147.614 7.88694 147.948 8.93868 147.936 10.015C147.949 11.0907 147.612 12.1416 146.976 13.009C146.296 13.919 145.379 14.625 144.325 15.05C141.835 16.0153 139.075 16.0153 136.585 15.05M143.32 13.656C144.094 13.3456 144.768 12.8293 145.27 12.163C145.726 11.5337 145.971 10.7765 145.971 9.9995C145.971 9.22247 145.726 8.46528 145.27 7.836C144.767 7.16898 144.094 6.65061 143.32 6.336C142.413 5.96126 141.438 5.77712 140.456 5.795C139.482 5.77742 138.514 5.96162 137.614 6.336C136.843 6.65191 136.172 7.17016 135.671 7.836C135.216 8.46546 134.97 9.22258 134.97 9.9995C134.97 10.7764 135.216 11.5335 135.671 12.163C136.171 12.8281 136.843 13.3443 137.614 13.656C138.515 14.0257 139.482 14.2071 140.456 14.189C141.437 14.2074 142.411 14.0261 143.32 13.656Z" fill="#252422"/>
<path d="M70.481 9.25H67.004C66.9565 9.24992 66.9102 9.23576 66.8708 9.20932C66.8313 9.18288 66.8006 9.14535 66.7825 9.10146C66.7645 9.05758 66.7598 9.00931 66.7691 8.96277C66.7785 8.91623 66.8014 8.87351 66.835 8.84L69.293 6.382C69.318 6.35689 69.332 6.32292 69.332 6.2875C69.332 6.25208 69.318 6.21811 69.293 6.193L68.421 5.321C68.3959 5.29602 68.3619 5.282 68.3265 5.282C68.2911 5.282 68.2571 5.29602 68.232 5.321L65.774 7.779C65.7405 7.81262 65.6978 7.83556 65.6512 7.8449C65.6047 7.85424 65.5564 7.84957 65.5126 7.83148C65.4687 7.81339 65.4311 7.78269 65.4047 7.74327C65.3783 7.70385 65.3641 7.65747 65.364 7.61V4.133C65.3638 4.09781 65.3497 4.06413 65.3248 4.03924C65.2999 4.01436 65.2662 4.00026 65.231 4H63.993C63.9578 4.00026 63.9241 4.01436 63.8993 4.03924C63.8744 4.06413 63.8603 4.09781 63.86 4.133V7.61C63.8599 7.65747 63.8458 7.70385 63.8193 7.74327C63.7929 7.78269 63.7554 7.81339 63.7115 7.83148C63.6676 7.84957 63.6193 7.85424 63.5728 7.8449C63.5262 7.83556 63.4835 7.81262 63.45 7.779L60.993 5.321C60.9679 5.29602 60.9339 5.282 60.8985 5.282C60.8631 5.282 60.8291 5.29602 60.804 5.321L59.932 6.193C59.907 6.21811 59.893 6.25208 59.893 6.2875C59.893 6.32292 59.907 6.35689 59.932 6.382L62.393 8.84C62.4266 8.87351 62.4496 8.91623 62.4589 8.96277C62.4683 9.00931 62.4636 9.05758 62.4455 9.10146C62.4274 9.14535 62.3967 9.18288 62.3573 9.20932C62.3179 9.23576 62.2715 9.24992 62.224 9.25H58.747C58.7118 9.25026 58.6781 9.26436 58.6533 9.28924C58.6284 9.31413 58.6143 9.34781 58.614 9.383V10.616C58.6143 10.6512 58.6284 10.6849 58.6533 10.7098C58.6781 10.7346 58.7118 10.7487 58.747 10.749H62.224C62.2715 10.7491 62.3179 10.7632 62.3573 10.7897C62.3967 10.8161 62.4274 10.8537 62.4455 10.8975C62.4636 10.9414 62.4683 10.9897 62.4589 11.0362C62.4496 11.0828 62.4266 11.1255 62.393 11.159L59.935 13.617C59.91 13.6421 59.896 13.6761 59.896 13.7115C59.896 13.7469 59.91 13.7809 59.935 13.806L60.807 14.678C60.8321 14.703 60.8661 14.717 60.9015 14.717C60.9369 14.717 60.9709 14.703 60.996 14.678L63.454 12.22C63.4875 12.1864 63.5303 12.1634 63.5768 12.1541C63.6233 12.1448 63.6716 12.1494 63.7155 12.1675C63.7594 12.1856 63.7969 12.2163 63.8233 12.2557C63.8498 12.2952 63.8639 12.3415 63.864 12.389V15.866C63.864 15.9007 63.8774 15.934 63.9015 15.959C63.9255 15.984 63.9584 15.9987 63.993 16H65.226C65.2612 15.9997 65.2949 15.9856 65.3198 15.9608C65.3447 15.9359 65.3588 15.9022 65.359 15.867V12.39C65.3591 12.3425 65.3732 12.2962 65.3997 12.2567C65.4261 12.2173 65.4637 12.1866 65.5076 12.1685C65.5514 12.1504 65.5997 12.1458 65.6462 12.1551C65.6928 12.1644 65.7355 12.1874 65.769 12.221L68.227 14.679C68.2521 14.704 68.2861 14.718 68.3215 14.718C68.3569 14.718 68.3909 14.704 68.416 14.679L69.288 13.807C69.313 13.7819 69.327 13.7479 69.327 13.7125C69.327 13.6771 69.313 13.6431 69.288 13.618L66.835 11.16C66.8014 11.1265 66.7785 11.0838 66.7691 11.0372C66.7598 10.9907 66.7645 10.9424 66.7825 10.8985C66.8006 10.8547 66.8313 10.8171 66.8708 10.7907C66.9102 10.7642 66.9565 10.7501 67.004 10.75H70.481C70.5162 10.7497 70.5499 10.7356 70.5748 10.7108C70.5997 10.6859 70.6138 10.6522 70.614 10.617V9.383C70.6138 9.34781 70.5997 9.31413 70.5748 9.28924C70.5499 9.26436 70.5162 9.25026 70.481 9.25Z" fill="#252422"/>
</svg>
