<svg width="41" height="41" viewBox="0 0 41 41" fill="none" xmlns="http://www.w3.org/2000/svg">
<path d="M40.4999 20.003H30.9799C30.8596 17.3941 29.7693 14.9242 27.9225 13.0775C26.0758 11.2308 23.6059 10.1404 20.997 10.02V0.5H20.0029V10.02C17.3939 10.1406 14.924 11.2312 13.0773 13.0781C11.2306 14.925 10.1403 17.395 10.02 20.004H0.499939V20.997H10.02C10.1403 23.606 11.2306 26.076 13.0773 27.9229C14.924 29.7698 17.3939 30.8604 20.0029 30.981V40.501H20.997V30.981C23.6059 30.8602 26.0756 29.7695 27.9223 27.9226C29.769 26.0758 30.8593 23.6059 30.9799 20.997H40.4999V20.003ZM27.2199 13.78C28.8817 15.4395 29.8673 17.6575 29.985 20.003H23.55C23.446 19.3633 23.1436 18.7726 22.6855 18.3142C22.2273 17.8559 21.6366 17.5532 20.997 17.449V11.014C23.3427 11.1318 25.5607 12.1177 27.2199 13.78ZM13.78 13.78C15.4394 12.1181 17.6573 11.1326 20.0029 11.015V17.45C19.3632 17.5543 18.7727 17.857 18.3144 18.3153C17.8561 18.7736 17.5532 19.3643 17.4489 20.004H11.0139C11.1325 17.6574 12.1199 15.4388 13.7839 13.78H13.78ZM13.78 27.219C12.118 25.5596 11.1326 23.3416 11.0151 20.996H17.4499C17.5542 21.6357 17.8571 22.2264 18.3154 22.6847C18.7737 23.143 19.3644 23.4457 20.0041 23.55V29.985C17.6596 29.8667 15.4425 28.8812 13.7839 27.22L13.78 27.219ZM27.2189 27.219C25.5595 28.8808 23.3416 29.8663 20.996 29.984V23.549C21.6356 23.4446 22.2261 23.1419 22.6843 22.6836C23.1424 22.2253 23.4449 21.6346 23.549 20.995H29.9841C29.8668 23.3412 28.8812 25.56 27.2189 27.22V27.219Z" fill="#21201F" stroke="#21201F"/>
</svg>
