<svg width="16" height="16" viewBox="0 0 16 16" fill="none" xmlns="http://www.w3.org/2000/svg">
<g clip-path="url(#clip0_94_25)">
<path d="M15.8226 6.99977H11.1873C11.1239 6.99993 11.0618 6.98122 11.009 6.94602C10.9562 6.91081 10.9151 6.86071 10.8909 6.80208C10.8666 6.74345 10.8604 6.67893 10.8729 6.61673C10.8854 6.55454 10.9161 6.49746 10.9612 6.45277L14.2386 3.17536C14.2719 3.14193 14.2906 3.09664 14.2906 3.04941C14.2906 3.00219 14.2719 2.9569 14.2386 2.92347L13.0756 1.76051C13.0422 1.72717 12.9969 1.70844 12.9497 1.70844C12.9025 1.70844 12.8572 1.72717 12.8237 1.76051L9.54631 5.03792C9.50162 5.08295 9.44455 5.11368 9.38235 5.1262C9.32015 5.13871 9.25563 5.13245 9.197 5.10821C9.13837 5.08397 9.08827 5.04284 9.05307 4.99006C9.01787 4.93727 8.99916 4.87521 8.99931 4.81177V0.17743C8.99907 0.130605 8.98043 0.0857528 8.9474 0.0525562C8.91438 0.0193596 8.86962 0.00048213 8.8228 0H7.17812C7.13114 0.000241563 7.08615 0.0190124 7.05293 0.0522349C7.01971 0.0854573 7.00094 0.130447 7.00069 0.17743V4.81269C7.00085 4.87613 6.98213 4.93819 6.94693 4.99098C6.91173 5.04376 6.86163 5.08489 6.803 5.10913C6.74437 5.13337 6.67986 5.13963 6.61766 5.12712C6.55546 5.1146 6.49839 5.08387 6.45369 5.03884L3.17628 1.76143C3.14285 1.72809 3.09755 1.70936 3.05033 1.70936C3.00311 1.70936 2.95782 1.72809 2.92439 1.76143L1.76143 2.92439C1.72809 2.95782 1.70936 3.00311 1.70936 3.05033C1.70936 3.09755 1.72809 3.14285 1.76143 3.17628L5.03701 6.45369C5.08204 6.49838 5.11276 6.55546 5.12528 6.61765C5.13779 6.67985 5.13153 6.74437 5.10729 6.803C5.08305 6.86163 5.04192 6.91173 4.98914 6.94693C4.93635 6.98213 4.8743 7.00085 4.81085 7.00069H0.177431C0.130448 7.00093 0.0854622 7.0197 0.0522397 7.05293C0.0190172 7.08615 0.000241563 7.13114 0 7.17812V8.82556C0.000241563 8.87254 0.0190172 8.91753 0.0522397 8.95075C0.0854622 8.98398 0.130448 9.00275 0.177431 9.00299H4.81269C4.87613 9.00283 4.9382 9.02154 4.99098 9.05674C5.04377 9.09194 5.08489 9.14205 5.10913 9.20068C5.13337 9.25931 5.13964 9.32382 5.12712 9.38602C5.11461 9.44822 5.08388 9.5053 5.03884 9.54999L1.76143 12.8246C1.72809 12.8581 1.70936 12.9034 1.70936 12.9506C1.70936 12.9978 1.72809 13.0431 1.76143 13.0765L2.92255 14.2386C2.95598 14.2719 3.00128 14.2906 3.0485 14.2906C3.09572 14.2906 3.14101 14.2719 3.17445 14.2386L6.45186 10.9612C6.49655 10.9161 6.55362 10.8854 6.61582 10.8729C6.67802 10.8604 6.74253 10.8666 6.80116 10.8909C6.85979 10.9151 6.90989 10.9562 6.9451 11.009C6.9803 11.0618 6.99901 11.1239 6.99885 11.1873V15.8226C6.99909 15.8696 7.01787 15.9145 7.05109 15.9478C7.08431 15.981 7.1293 15.9998 7.17628 16H8.82096C8.86795 15.9998 8.91294 15.981 8.94616 15.9478C8.97938 15.9145 8.99815 15.8696 8.99839 15.8226V11.1864C8.99824 11.1229 9.01695 11.0609 9.05215 11.0081C9.08735 10.9553 9.13745 10.9142 9.19608 10.89C9.25471 10.8657 9.31923 10.8594 9.38143 10.872C9.44363 10.8845 9.5007 10.9152 9.54539 10.9602L12.8228 14.2376C12.8562 14.271 12.9015 14.2897 12.9487 14.2897C12.996 14.2897 13.0413 14.271 13.0747 14.2376L14.2376 13.0747C14.271 13.0413 14.2897 12.996 14.2897 12.9487C14.2897 12.9015 14.271 12.8562 14.2376 12.8228L10.9602 9.54539C10.9152 9.5007 10.8845 9.44363 10.872 9.38143C10.8595 9.31923 10.8657 9.25471 10.89 9.19608C10.9142 9.13745 10.9553 9.08735 11.0081 9.05215C11.0609 9.01695 11.1229 8.99823 11.1864 8.99839H15.8216C15.8686 8.99815 15.9136 8.97938 15.9468 8.94616C15.9801 8.91293 15.9988 8.86794 15.9991 8.82096V7.17812C15.9988 7.13114 15.9801 7.08615 15.9468 7.05293C15.9136 7.0197 15.8686 7.00093 15.8216 7.00069" fill="#252422"/>
</g>
<defs>
<clipPath id="clip0_94_25">
<rect width="16" height="16" fill="white"/>
</clipPath>
</defs>
</svg>
