<svg width="264" height="75" viewBox="0 0 264 75" fill="none" xmlns="http://www.w3.org/2000/svg">
<path d="M132 0C98.915 0 72 16.723 72 37.277C72 57.831 98.915 74.556 132 74.556C165.085 74.556 192 57.833 192 37.277C192 16.721 165.084 0 132 0ZM187.477 35.4H178.027C177.877 35.3998 177.733 35.3429 177.624 35.2406C177.514 35.1383 177.448 34.9984 177.438 34.849C176.953 29.1677 174.972 23.7162 171.696 19.049C171.643 18.9706 171.609 18.8808 171.598 18.7869C171.586 18.693 171.597 18.5977 171.629 18.5088C171.662 18.4198 171.714 18.3398 171.784 18.2752C171.853 18.2106 171.936 18.1632 172.027 18.137C173.454 17.7323 174.82 17.3047 176.127 16.854C176.221 16.8216 176.323 16.8134 176.421 16.83C176.52 16.8466 176.612 16.8875 176.691 16.949C183.122 21.958 187.239 28.074 188.084 34.727C188.093 34.8121 188.084 34.8981 188.057 34.9794C188.031 35.0608 187.988 35.1357 187.931 35.1992C187.873 35.2628 187.803 35.3136 187.725 35.3484C187.647 35.3831 187.562 35.4011 187.477 35.401V35.4ZM171.231 14.459C170.498 14.669 169.746 14.8727 168.975 15.07C168.87 15.097 168.76 15.095 168.656 15.0644C168.552 15.0337 168.458 14.9755 168.385 14.896C167.176 13.5839 165.884 12.3519 164.515 11.208C164.411 11.1149 164.343 10.9885 164.322 10.8506C164.302 10.7127 164.33 10.5719 164.401 10.4524C164.473 10.3328 164.584 10.2421 164.716 10.1956C164.847 10.1492 164.991 10.1501 165.122 10.198C167.265 11.1275 169.352 12.1831 171.371 13.359C171.472 13.4194 171.553 13.508 171.605 13.6138C171.656 13.7196 171.676 13.8381 171.661 13.9549C171.646 14.0717 171.598 14.1816 171.522 14.2713C171.445 14.361 171.345 14.4265 171.232 14.46L171.231 14.459ZM163.261 16.367C160.704 16.872 158.018 17.313 155.233 17.687C155.105 17.704 154.975 17.6793 154.862 17.6166C154.75 17.554 154.66 17.4566 154.607 17.339C153.002 13.7457 150.815 10.442 148.134 7.561C148.035 7.46448 147.973 7.33699 147.958 7.19998C147.942 7.06298 147.974 6.92482 148.049 6.80875C148.123 6.69267 148.235 6.60577 148.366 6.56265C148.497 6.51954 148.639 6.52282 148.768 6.57199C154.24 8.45935 159.27 11.4398 163.554 15.332C163.635 15.408 163.694 15.5048 163.724 15.6119C163.753 15.719 163.753 15.8322 163.723 15.9392C163.693 16.0461 163.633 16.1427 163.552 16.2184C163.471 16.294 163.37 16.3458 163.261 16.368V16.367ZM134.57 3.96701C141.101 5.03001 146.815 10.085 150.529 17.419C150.573 17.5067 150.595 17.6037 150.593 17.7017C150.591 17.7997 150.566 17.8958 150.519 17.9818C150.472 18.0679 150.405 18.1413 150.323 18.1958C150.242 18.2503 150.148 18.2844 150.051 18.295C145.078 18.795 139.851 19.081 134.488 19.151C134.327 19.1526 134.172 19.0903 134.057 18.9778C133.942 18.8653 133.877 18.7118 133.875 18.551V4.57401C133.875 4.48661 133.893 4.40019 133.93 4.32065C133.966 4.24111 134.019 4.1703 134.085 4.11307C134.151 4.05584 134.228 4.01353 134.312 3.98901C134.396 3.9645 134.484 3.95836 134.571 3.97101L134.57 3.96701ZM130.123 4.56699V18.543C130.121 18.7038 130.055 18.8573 129.941 18.9698C129.826 19.0823 129.671 19.1446 129.51 19.143C124.157 19.073 118.927 18.783 113.949 18.284C113.852 18.2734 113.758 18.2393 113.677 18.1848C113.595 18.1303 113.528 18.0569 113.481 17.9708C113.434 17.8848 113.409 17.7887 113.407 17.6907C113.405 17.5927 113.427 17.4957 113.471 17.408C117.185 10.076 122.897 5.023 129.428 3.961C129.515 3.94819 129.604 3.95457 129.689 3.97968C129.773 4.00478 129.851 4.04801 129.918 4.10635C129.984 4.1647 130.036 4.23674 130.072 4.3175C130.107 4.39827 130.125 4.48581 130.123 4.57401V4.56699ZM108.768 17.677C105.984 17.304 103.295 16.866 100.737 16.361C100.628 16.3385 100.528 16.2867 100.447 16.2112C100.366 16.1357 100.307 16.0394 100.277 15.9328C100.247 15.8262 100.246 15.7134 100.276 15.6066C100.305 15.4998 100.363 15.4031 100.444 15.327C104.728 11.4344 109.76 8.45395 115.232 6.56699C115.361 6.51872 115.502 6.51612 115.632 6.55957C115.763 6.60302 115.874 6.68989 115.948 6.80569C116.022 6.9215 116.054 7.0592 116.039 7.19577C116.024 7.33234 115.962 7.4595 115.864 7.556C113.184 10.4364 110.998 13.7391 109.394 17.331C109.342 17.4495 109.252 17.548 109.14 17.6116C109.027 17.6752 108.896 17.7006 108.768 17.684V17.677ZM99.485 11.202C98.116 12.3449 96.8232 13.5762 95.615 14.888C95.5413 14.9679 95.4473 15.0263 95.343 15.0569C95.2388 15.0876 95.1281 15.0893 95.0229 15.062C94.2563 14.862 93.5057 14.658 92.771 14.45C92.6584 14.4164 92.558 14.3508 92.4821 14.2612C92.4061 14.1716 92.3577 14.0618 92.343 13.9453C92.3283 13.8287 92.3478 13.7104 92.399 13.6047C92.4503 13.499 92.5313 13.4106 92.632 13.35C94.6501 12.1755 96.7357 11.121 98.8779 10.192C99.0104 10.1396 99.1571 10.1361 99.2919 10.182C99.4267 10.2279 99.5408 10.3202 99.6138 10.4425C99.6868 10.5647 99.7139 10.709 99.6903 10.8494C99.6667 10.9899 99.5939 11.1173 99.485 11.209V11.202ZM87.8719 16.844C89.1773 17.2927 90.5439 17.7193 91.9719 18.124C92.0634 18.1493 92.1475 18.1961 92.2172 18.2605C92.2868 18.3249 92.34 18.4051 92.3723 18.4943C92.4046 18.5835 92.4151 18.6791 92.4028 18.7732C92.3906 18.8672 92.3559 18.957 92.3019 19.035C89.0247 23.7045 87.0432 29.1588 86.559 34.843C86.5484 34.9922 86.4818 35.1319 86.3726 35.2341C86.2633 35.3363 86.1195 35.3934 85.97 35.394H76.5199C76.4342 35.394 76.3495 35.3758 76.2712 35.3408C76.193 35.3058 76.123 35.2547 76.0658 35.1909C76.0086 35.127 75.9655 35.0517 75.9393 34.9701C75.9132 34.8884 75.9045 34.8022 75.9139 34.717C76.7589 28.064 80.8759 21.949 87.3059 16.94C87.3854 16.8793 87.4789 16.8395 87.5778 16.8241C87.6766 16.8087 87.7777 16.8183 87.8719 16.852V16.844ZM76.522 39.144H85.9719C86.1215 39.1446 86.2653 39.2018 86.3745 39.304C86.4837 39.4061 86.5503 39.5458 86.5609 39.695C87.0441 45.3786 89.0255 50.8325 92.303 55.501C92.3573 55.5789 92.3921 55.6687 92.4044 55.7628C92.4168 55.857 92.4062 55.9527 92.3739 56.042C92.3416 56.1313 92.2883 56.2115 92.2185 56.2758C92.1487 56.3402 92.0645 56.3869 91.9729 56.412C90.5462 56.8173 89.1796 57.2453 87.8729 57.696C87.7783 57.7285 87.677 57.7369 87.5784 57.7203C87.4797 57.7037 87.3868 57.6627 87.308 57.601C80.877 52.591 76.7599 46.475 75.9149 39.821C75.9068 39.7364 75.9166 39.651 75.9435 39.5703C75.9704 39.4897 76.0138 39.4156 76.071 39.3527C76.1283 39.2899 76.1982 39.2398 76.276 39.2055C76.3538 39.1713 76.4379 39.1537 76.5229 39.154L76.522 39.144ZM92.7689 60.088C93.5023 59.8793 94.2542 59.676 95.0249 59.478C95.1298 59.4511 95.2401 59.453 95.344 59.4836C95.4479 59.5143 95.5415 59.5725 95.615 59.652C96.8235 60.9628 98.1158 62.1938 99.4839 63.337C99.5877 63.4301 99.6558 63.5565 99.6765 63.6944C99.6972 63.8323 99.6694 63.9731 99.5975 64.0927C99.5257 64.2122 99.4145 64.3029 99.283 64.3494C99.1515 64.3958 99.0079 64.3949 98.877 64.347C96.7344 63.4178 94.6488 62.3627 92.631 61.187C92.5333 61.1255 92.4553 61.0373 92.406 60.9329C92.3568 60.8285 92.3383 60.7122 92.3529 60.5977C92.3675 60.4832 92.4145 60.3752 92.4884 60.2865C92.5623 60.1978 92.6599 60.1321 92.7699 60.097L92.7689 60.088ZM100.739 58.181C103.295 57.675 105.981 57.234 108.766 56.86C108.894 56.843 109.024 56.8677 109.137 56.9304C109.249 56.993 109.339 57.0904 109.392 57.208C110.997 60.8003 113.184 64.1033 115.864 66.984C115.962 67.0805 116.024 67.2077 116.039 67.3442C116.054 67.4808 116.022 67.6185 115.948 67.7343C115.874 67.8501 115.763 67.937 115.632 67.9804C115.502 68.0239 115.361 68.0213 115.232 67.973C109.761 66.0864 104.73 63.1066 100.447 59.215C100.369 59.1388 100.313 59.0429 100.285 58.9374C100.257 58.832 100.258 58.7209 100.287 58.6159C100.317 58.5109 100.375 58.4159 100.454 58.3409C100.533 58.266 100.631 58.2138 100.738 58.19L100.739 58.181ZM129.427 70.575C122.896 69.513 117.183 64.459 113.469 57.125C113.425 57.0373 113.403 56.9402 113.405 56.8421C113.406 56.7439 113.432 56.6477 113.479 56.5615C113.526 56.4753 113.593 56.4018 113.674 56.3472C113.756 56.2926 113.849 56.2586 113.947 56.248C118.92 55.748 124.147 55.462 129.509 55.394C129.589 55.393 129.668 55.4076 129.742 55.4373C129.816 55.4669 129.883 55.5108 129.94 55.5666C129.997 55.6223 130.043 55.6888 130.074 55.7621C130.105 55.8355 130.121 55.9143 130.122 55.994V69.969C130.124 70.0572 130.107 70.1447 130.072 70.2256C130.036 70.3064 129.984 70.3786 129.918 70.4371C129.852 70.4957 129.774 70.5392 129.69 70.5645C129.605 70.5899 129.516 70.5965 129.429 70.584L129.427 70.575ZM131.999 51.628C131.207 51.628 130.428 51.634 129.657 51.644C128.427 51.6593 127.204 51.6867 125.989 51.726C125.516 51.7407 125.05 51.757 124.589 51.775C123.695 51.81 122.809 51.853 121.924 51.9C121.011 51.949 120.112 52 119.239 52.063C118.965 52.081 118.693 52.101 118.421 52.122C113.786 52.46 109.763 52.931 106.488 53.405L105.862 53.497C105.431 53.562 105.012 53.625 104.609 53.689C101.991 54.11 99.472 54.589 97.075 55.129C96.9699 55.1533 96.8601 55.1482 96.7578 55.1141C96.6555 55.0801 96.5645 55.0184 96.495 54.936C92.9134 50.4001 90.7544 44.9057 90.2899 39.145H90.3569C90.3159 38.533 90.2899 37.91 90.2899 37.269C90.2899 36.628 90.3159 36.004 90.3569 35.392H90.2899C90.7548 29.6332 92.9119 24.1403 96.49 19.604C96.5602 19.5216 96.6517 19.46 96.7545 19.426C96.8573 19.392 96.9675 19.3868 97.073 19.411C97.7837 19.5703 98.5049 19.7247 99.2369 19.874L99.7369 19.974C100.108 20.048 100.486 20.118 100.862 20.19C103.478 20.677 107.237 21.295 111.849 21.828C118.539 22.6044 125.268 22.9954 132.003 22.999C138.683 22.9834 145.357 22.5988 151.995 21.847C156.916 21.283 160.871 20.621 163.526 20.117C163.726 20.079 163.921 20.043 164.114 20.004C164.359 19.956 164.588 19.912 164.805 19.867C165.52 19.721 166.228 19.567 166.924 19.413C167.032 19.3881 167.145 19.3942 167.249 19.4304C167.354 19.4667 167.447 19.5317 167.516 19.618C168.788 21.2129 169.877 22.9454 170.763 24.783C170.826 24.907 170.884 25.031 170.944 25.155C171.067 25.415 171.186 25.687 171.308 25.963C172.663 28.9392 173.478 32.1325 173.715 35.394H173.648C173.69 36.006 173.715 36.631 173.715 37.271C173.715 37.911 173.69 38.535 173.648 39.147H173.715C173.479 42.405 172.667 45.5953 171.315 48.569C171.193 48.851 171.07 49.126 170.944 49.391C170.886 49.512 170.829 49.635 170.767 49.755C169.88 51.5944 168.79 53.3285 167.517 54.925C167.448 55.0108 167.356 55.0755 167.252 55.1117C167.148 55.1479 167.036 55.1543 166.928 55.13C164.494 54.582 161.935 54.096 159.273 53.671L158.839 53.603C158.325 53.523 157.802 53.448 157.281 53.373C155.446 53.111 153.389 52.85 151.121 52.613C150.558 52.5543 149.992 52.498 149.421 52.444C148.512 52.3587 147.573 52.2773 146.606 52.2C145.931 52.1473 145.252 52.098 144.57 52.052C143.803 52 143.017 51.952 142.218 51.909C141.271 51.859 140.318 51.809 139.362 51.775C138.926 51.758 138.486 51.743 138.043 51.728C136.82 51.6893 135.592 51.6627 134.357 51.648C133.578 51.643 132.796 51.637 132 51.637L131.999 51.628ZM133.875 69.972V56.006C133.876 55.9263 133.892 55.8475 133.923 55.7741C133.954 55.7008 134 55.6343 134.057 55.5786C134.114 55.5228 134.181 55.4789 134.255 55.4492C134.329 55.4196 134.408 55.4049 134.488 55.406C139.841 55.476 145.071 55.766 150.048 56.264C150.145 56.2748 150.239 56.309 150.32 56.3636C150.402 56.4183 150.469 56.4917 150.516 56.5779C150.563 56.664 150.588 56.7601 150.59 56.8582C150.592 56.9562 150.57 57.0532 150.526 57.141C146.812 64.473 141.1 69.526 134.57 70.588C134.483 70.6002 134.395 70.5936 134.311 70.5687C134.228 70.5438 134.15 70.5012 134.084 70.4437C134.019 70.3862 133.966 70.3152 133.93 70.2355C133.894 70.1559 133.876 70.0694 133.876 69.982L133.875 69.972ZM155.23 56.862C158.014 57.236 160.703 57.674 163.261 58.178C163.369 58.2005 163.47 58.2523 163.551 58.3278C163.632 58.4033 163.691 58.4996 163.721 58.6062C163.751 58.7128 163.752 58.8256 163.722 58.9324C163.693 59.0392 163.635 59.1359 163.554 59.212C159.27 63.1046 154.24 66.0851 148.768 67.972C148.639 68.0211 148.497 68.0245 148.366 67.9814C148.235 67.9382 148.123 67.8513 148.049 67.7353C147.974 67.6192 147.942 67.481 147.958 67.344C147.973 67.207 148.035 67.0795 148.134 66.983C150.814 64.1031 153 60.8007 154.604 57.209C154.659 57.0932 154.749 56.9981 154.862 56.9375C154.975 56.8768 155.104 56.8539 155.231 56.872L155.23 56.862ZM164.513 63.337C165.882 62.194 167.175 60.9627 168.383 59.651C168.457 59.5715 168.551 59.5135 168.655 59.4828C168.759 59.4522 168.87 59.4502 168.975 59.477C169.742 59.677 170.492 59.881 171.227 60.089C171.34 60.1226 171.44 60.1882 171.516 60.2778C171.592 60.3674 171.64 60.4772 171.655 60.5937C171.67 60.7103 171.65 60.8286 171.599 60.9343C171.547 61.04 171.467 61.1284 171.366 61.189C169.348 62.3635 167.263 63.4179 165.121 64.347C164.992 64.3898 164.852 64.3876 164.725 64.3408C164.597 64.2939 164.489 64.2051 164.419 64.0889C164.348 63.9728 164.319 63.8361 164.337 63.7013C164.354 63.5665 164.416 63.4416 164.514 63.347L164.513 63.337ZM176.125 57.695C174.82 57.2463 173.453 56.82 172.025 56.416C171.934 56.3896 171.851 56.3422 171.782 56.2776C171.713 56.2129 171.66 56.1329 171.628 56.0439C171.596 55.955 171.585 55.8598 171.597 55.7659C171.608 55.6721 171.642 55.5824 171.695 55.504C174.973 50.8346 176.955 45.3797 177.439 39.695C177.449 39.5456 177.516 39.4057 177.625 39.3034C177.734 39.2011 177.878 39.1442 178.028 39.144H187.478C187.564 39.1441 187.648 39.1622 187.727 39.1972C187.805 39.2322 187.875 39.2833 187.932 39.3472C187.989 39.411 188.032 39.4863 188.059 39.5679C188.085 39.6495 188.093 39.7358 188.084 39.821C187.239 46.474 183.122 52.59 176.692 57.6C176.614 57.6632 176.521 57.7059 176.423 57.724C176.324 57.7422 176.222 57.7353 176.127 57.704L176.125 57.695Z" fill="#252422"/>
<path d="M136.181 28.6379V37.0089C136.181 37.0871 136.156 37.1632 136.109 37.2258C136.062 37.2883 135.996 37.3339 135.921 37.3556C135.846 37.3772 135.766 37.3739 135.693 37.346C135.62 37.3181 135.558 37.2672 135.516 37.2009L129.987 28.4459C129.955 28.3944 129.909 28.352 129.856 28.3226C129.803 28.2932 129.743 28.2778 129.682 28.2779H125.738C125.642 28.2779 125.551 28.3158 125.483 28.3834C125.416 28.4509 125.378 28.5424 125.378 28.6379V45.9179C125.378 46.0134 125.416 46.105 125.483 46.1725C125.551 46.24 125.642 46.2779 125.738 46.2779H129.518C129.613 46.2779 129.705 46.24 129.773 46.1725C129.84 46.105 129.878 46.0134 129.878 45.9179V37.5429C129.878 37.465 129.904 37.3893 129.951 37.3271C129.997 37.2649 130.063 37.2195 130.138 37.1979C130.213 37.1763 130.293 37.1795 130.366 37.2071C130.438 37.2347 130.5 37.2851 130.542 37.3509L136.072 46.1059C136.104 46.1568 136.148 46.1988 136.201 46.2282C136.253 46.2575 136.312 46.2733 136.372 46.2739H140.314C140.41 46.2739 140.501 46.236 140.569 46.1685C140.636 46.101 140.674 46.0094 140.674 45.9139V28.6339C140.674 28.5384 140.636 28.4469 140.569 28.3794C140.501 28.3119 140.41 28.2739 140.314 28.2739H136.534C136.439 28.2758 136.349 28.3151 136.283 28.3832C136.216 28.4514 136.18 28.5429 136.181 28.6379Z" fill="#252422"/>
<path d="M116.269 28.4638L112.637 35.0558C112.606 35.1121 112.56 35.1589 112.504 35.1916C112.449 35.2242 112.386 35.2414 112.321 35.2414C112.257 35.2414 112.194 35.2242 112.138 35.1916C112.083 35.1589 112.037 35.1121 112.006 35.0558L108.374 28.4638C108.343 28.4074 108.297 28.3604 108.242 28.3277C108.187 28.295 108.123 28.2778 108.059 28.2778H104.132C104.037 28.2778 103.945 28.3158 103.878 28.3833C103.81 28.4508 103.772 28.5423 103.772 28.6378V45.9178C103.772 46.0133 103.81 46.1049 103.878 46.1724C103.945 46.2399 104.037 46.2778 104.132 46.2778H107.912C108.008 46.2778 108.099 46.2399 108.167 46.1724C108.234 46.1049 108.272 46.0133 108.272 45.9178V38.2578C108.272 38.1776 108.299 38.0996 108.349 38.0364C108.398 37.9733 108.468 37.9285 108.545 37.9091C108.623 37.8898 108.705 37.8971 108.779 37.9299C108.852 37.9626 108.912 38.0189 108.95 38.0898L112.003 43.8748C112.034 43.9328 112.079 43.9814 112.136 44.0153C112.192 44.0491 112.256 44.067 112.321 44.067C112.387 44.067 112.451 44.0491 112.508 44.0153C112.564 43.9814 112.609 43.9328 112.64 43.8748L115.693 38.0898C115.73 38.0184 115.791 37.9615 115.864 37.9284C115.938 37.8953 116.02 37.8879 116.098 37.9072C116.177 37.9266 116.246 37.9717 116.296 38.0352C116.345 38.0988 116.372 38.1772 116.372 38.2578V45.9178C116.372 46.0133 116.41 46.1049 116.477 46.1724C116.545 46.2399 116.637 46.2778 116.732 46.2778H120.512C120.608 46.2778 120.699 46.2399 120.767 46.1724C120.834 46.1049 120.872 46.0133 120.872 45.9178V28.6378C120.872 28.5423 120.834 28.4508 120.767 28.3833C120.699 28.3158 120.608 28.2778 120.512 28.2778H116.584C116.52 28.2778 116.456 28.295 116.401 28.3277C116.346 28.3604 116.3 28.4074 116.269 28.4638Z" fill="#252422"/>
<path d="M149.312 28.2778H145.532C145.333 28.2778 145.172 28.439 145.172 28.6378V45.9178C145.172 46.1167 145.333 46.2778 145.532 46.2778H149.312C149.511 46.2778 149.672 46.1167 149.672 45.9178V28.6378C149.672 28.439 149.511 28.2778 149.312 28.2778Z" fill="#252422"/>
<path d="M159.867 28.2778H155.738C155.673 28.278 155.609 28.2956 155.554 28.3289C155.498 28.3621 155.452 28.4098 155.421 28.4668L149.961 38.5468C149.931 38.6017 149.917 38.6633 149.918 38.7256C149.919 38.7879 149.937 38.8489 149.969 38.9024C150.001 38.9559 150.046 39.0002 150.1 39.0309C150.154 39.0617 150.216 39.0779 150.278 39.0778H151.409C151.474 39.078 151.538 39.0957 151.593 39.1289C151.649 39.1622 151.695 39.2098 151.726 39.2668L155.421 46.0898C155.452 46.1467 155.498 46.1942 155.554 46.2273C155.609 46.2604 155.673 46.2779 155.738 46.2778H159.869C159.931 46.2779 159.993 46.2617 160.047 46.231C160.101 46.2002 160.146 46.1559 160.178 46.1024C160.21 46.0488 160.228 45.9879 160.229 45.9256C160.23 45.8633 160.216 45.8017 160.186 45.7468L155.692 37.4468C155.663 37.3942 155.648 37.3352 155.648 37.2753C155.648 37.2154 155.663 37.1565 155.692 37.1038L160.186 28.8038C160.214 28.749 160.228 28.6878 160.226 28.6261C160.223 28.5644 160.206 28.5044 160.174 28.4516C160.142 28.3989 160.097 28.3552 160.043 28.3248C159.989 28.2943 159.929 28.2782 159.867 28.2778Z" fill="#252422"/>
<path d="M260 40.8511C262.209 40.8511 264 39.0602 264 36.8511C264 34.6419 262.209 32.8511 260 32.8511C257.791 32.8511 256 34.6419 256 36.8511C256 39.0602 257.791 40.8511 260 40.8511Z" fill="#252422"/>
<path d="M4 40.8511C6.20914 40.8511 8 39.0602 8 36.8511C8 34.6419 6.20914 32.8511 4 32.8511C1.79086 32.8511 0 34.6419 0 36.8511C0 39.0602 1.79086 40.8511 4 40.8511Z" fill="#252422"/>
</svg>
