<svg width="25" height="16" viewBox="0 0 25 16" fill="none" xmlns="http://www.w3.org/2000/svg">
<g clip-path="url(#clip0_94_35)">
<path d="M16.98 1.56929e-06H13.625C13.3126 1.34152e-05 13.0115 0.117031 12.781 0.328002L8.941 3.844C8.941 3.844 8.933 3.856 8.929 3.86C8.62935 4.14007 8.45258 4.52724 8.43722 4.93711C8.42186 5.34697 8.56916 5.74629 8.847 6.048C9.13355 6.33519 9.51695 6.50512 9.92218 6.52454C10.3274 6.54396 10.7253 6.41147 11.038 6.153C11.038 6.153 11.05 6.153 11.054 6.145L14.175 3.286C14.2975 3.17547 14.4587 3.11786 14.6235 3.12573C14.7883 3.1336 14.9433 3.20631 15.0547 3.32801C15.1661 3.44971 15.2249 3.61052 15.2182 3.77537C15.2115 3.94022 15.1399 4.09573 15.019 4.208L14 5.141L19.687 9.758C19.7975 9.84996 19.9008 9.95025 19.996 10.058V2.5L17.863 0.367002C17.7474 0.250474 17.6098 0.158036 17.4583 0.0950395C17.3067 0.0320432 17.1441 -0.000259449 16.98 1.56929e-06ZM21.25 2.508V11.254C21.2508 11.5849 21.3829 11.902 21.6172 12.1356C21.8516 12.3692 22.1691 12.5003 22.5 12.5H25V2.5L21.25 2.508ZM23.125 11.254C23.0014 11.254 22.8806 11.2173 22.7778 11.1487C22.675 11.08 22.5949 10.9824 22.5476 10.8682C22.5003 10.754 22.4879 10.6283 22.512 10.5071C22.5361 10.3858 22.5956 10.2745 22.6831 10.1871C22.7705 10.0997 22.8818 10.0401 23.0031 10.016C23.1243 9.9919 23.25 10.0043 23.3642 10.0516C23.4784 10.0989 23.576 10.179 23.6447 10.2818C23.7133 10.3846 23.75 10.5054 23.75 10.629C23.7495 10.7946 23.6835 10.9533 23.5664 11.0704C23.4493 11.1875 23.2906 11.2535 23.125 11.254ZM0 12.5H2.5C2.66419 12.5001 2.82679 12.4679 2.97851 12.4051C3.13023 12.3423 3.26808 12.2503 3.38418 12.1342C3.50028 12.0181 3.59235 11.8802 3.65512 11.7285C3.71789 11.5768 3.75013 11.4142 3.75 11.25V2.508H0V12.5ZM1.875 10C1.99861 10 2.11945 10.0367 2.22223 10.1053C2.32501 10.174 2.40512 10.2716 2.45242 10.3858C2.49973 10.5 2.51211 10.6257 2.48799 10.7469C2.46388 10.8682 2.40435 10.9795 2.31694 11.0669C2.22953 11.1544 2.11817 11.2139 1.99693 11.238C1.87569 11.2621 1.75003 11.2497 1.63582 11.2024C1.52162 11.1551 1.42401 11.075 1.35533 10.9722C1.28666 10.8695 1.25 10.7486 1.25 10.625C1.25053 10.4594 1.31654 10.3007 1.43364 10.1836C1.55074 10.0665 1.7094 10.0005 1.875 10ZM18.9 10.73L13.07 6L11.9 7.07C11.6297 7.32951 11.3103 7.53239 10.9605 7.66671C10.6107 7.80103 10.2376 7.86409 9.86304 7.85217C9.48852 7.84025 9.12016 7.75361 8.77961 7.59732C8.43905 7.44104 8.13316 7.21826 7.87992 6.94209C7.62667 6.66592 7.43117 6.34192 7.30491 5.98913C7.17865 5.63634 7.12417 5.26187 7.14468 4.88773C7.16518 4.51358 7.26025 4.14731 7.42431 3.81043C7.58836 3.47354 7.81809 3.17285 8.1 2.926L11.3 1.56929e-06H8.02C7.85592 0.000124688 7.69347 0.0326027 7.54196 0.0955769C7.39044 0.158551 7.25283 0.250786 7.137 0.367002L5 2.5V11.246H5.715L9.25 14.446C9.76445 14.864 10.4238 15.0605 11.0832 14.9924C11.7425 14.9244 12.3478 14.5973 12.766 14.083L12.774 14.075L13.474 14.68C13.622 14.8003 13.7922 14.8903 13.975 14.9448C14.1578 14.9994 14.3495 15.0173 14.5392 14.9977C14.7289 14.9782 14.9129 14.9214 15.0807 14.8306C15.2485 14.7399 15.3967 14.617 15.517 14.469L16.744 12.961L16.955 13.133C17.0824 13.2366 17.229 13.314 17.3864 13.3608C17.5438 13.4077 17.7089 13.423 17.8722 13.4059C18.0355 13.3888 18.1938 13.3396 18.3381 13.2612C18.4824 13.1828 18.6098 13.0767 18.713 12.949L19.084 12.492C19.1879 12.3645 19.2657 12.2178 19.3129 12.0602C19.3601 11.9027 19.3758 11.7373 19.3591 11.5737C19.3424 11.4101 19.2936 11.2513 19.2155 11.1066C19.1374 10.9618 19.0316 10.8338 18.904 10.73H18.9Z" fill="#252422"/>
</g>
<defs>
<clipPath id="clip0_94_35">
<rect width="25" height="15.005" fill="white"/>
</clipPath>
</defs>
</svg>
